<svg width="138" height="40" viewBox="0 0 138 40" fill="none" xmlns="http://www.w3.org/2000/svg">
<g clip-path="url(#clip0_614_747)">
<path d="M94.5048 18.9585C94.5048 18.9585 94.5843 18.9585 94.6161 18.9585C95.1884 19.499 96.1582 19.4434 96.8259 19.9124C97.8196 20.2939 98.4078 21.3194 99.2902 21.7168C101.381 25.278 101.683 30.1429 100.18 34.03C95.9277 42.7899 78.4555 37.6071 70.0294 38.9267C68.7814 27.3289 70.0215 14.2287 69.5922 2.14606C69.5922 1.11268 69.5922 1.11268 70.6177 1.11268C77.2393 1.15242 83.8609 1.03319 90.4825 1.17627C99.4094 0.198527 102.303 12.472 95.9754 17.4084C95.6574 17.782 92.7878 18.8074 94.4889 18.9585H94.5048ZM81.5477 27.0904C81.5477 27.0904 81.5875 27.0904 81.6034 27.0904C81.8498 27.9807 81.0231 30.0157 82.1041 30.2462C85.9754 30.6993 90.9515 29.976 88.5668 24.8885C87.2313 22.8933 84.2186 24.1174 82.1757 23.7995C80.8959 23.9426 81.8021 26.1524 81.5477 27.0904ZM81.6113 12.162C81.6113 12.162 81.6113 12.162 81.6034 12.162C81.818 12.9966 81.0708 14.7772 82.1041 15.0316C84.0119 14.9601 87.3426 15.747 87.8037 13.1556C88.4953 8.92667 85.3235 9.10155 82.1598 9.24463C81.0549 9.45926 81.8418 11.3194 81.6113 12.162Z" fill="#FF089C"/>
<path d="M104.473 22.6947C104.473 17.4721 104.568 12.1223 106.381 7.17798C107.7 5.00787 109.274 2.96494 111.548 1.64539C112.16 1.64539 112.724 1.26383 113.233 1.04126C118.122 -0.0875207 123.249 -0.047775 128.169 0.99356C128.463 1.27973 129.346 1.58974 129.783 1.61359C139.417 6.26383 139.489 31.3592 131.349 37.3529C125.395 40.8028 117.104 40.604 110.912 37.9013C105.459 34.9602 105.109 28.0842 104.473 22.6867V22.6947ZM117.963 10.5643C115.57 13.108 117.597 24.0381 116.961 28.2352C116.134 31.5579 120.936 30.0715 122.907 29.8648C126.5 27.9967 123.789 14.9602 124.584 10.6597C125.014 8.95858 118.535 9.74555 117.979 10.5564H117.963V10.5643Z" fill="#FF089C"/>
<path d="M33.6065 33.6487C33.6145 33.5453 33.6224 33.442 33.6304 33.3307C34.6002 32.1781 33.5986 28.9984 35.1407 28.5294C36.039 28.6646 36.8895 29.1177 37.7957 28.9507C40.4507 29.7934 49.5445 30.7631 51.3172 28.8236C51.0787 27.7584 52.0167 25.5167 50.5859 25.2385C47.5652 25.0239 44.5684 24.5469 41.5239 24.4038C40.3235 24.3641 40.9674 22.7266 40.8164 21.9396C40.1566 12.5279 42.0485 16.2878 50.0692 14.6264C50.4507 14.5231 51.2456 14.7377 51.2695 14.1415C50.9992 12.981 51.9531 10.8108 50.7369 10.2306C47.756 9.98413 44.7433 9.93644 41.7544 10.167C40.2599 9.93644 35.5143 11.8601 35.1169 10.636C35.2679 8.59304 32.1916 1.94757 35.0215 2.03501C42.4221 0.333895 58.1534 -2.84576 62.3267 5.38159C64.3378 9.88874 62.8991 15.8426 58.3998 18.283C57.5731 19.2767 62.1121 20.4611 62.5413 22.1701C65.5143 26.9555 64.3617 34.1654 59.8704 37.5756C55.3076 39.8172 49.9261 39.7218 45.0771 39.9682C42.8196 39.4992 40.2043 39.6503 37.907 39.3403C36.5398 38.2989 33.0978 39.6105 32.9626 37.2973C33.4634 36.2242 33.5509 34.8172 33.5986 33.6169L33.6065 33.6487Z" fill="#FF089C"/>
<path d="M25.8801 10.795C25.8403 10.795 25.7926 10.795 25.7529 10.795C22.8673 10.1193 15.4905 8.76005 13.8769 12.1225C13.551 17.5597 13.853 23.0685 13.7576 28.5295C14.1869 30.5327 22.0724 29.3721 23.9802 29.3006C25.3077 29.1019 26.4365 28.3467 27.8673 28.5216C27.3904 30.3976 29.4254 38.2116 27.9786 38.5772C20.8165 40.6201 12.1996 40.5963 5.9039 36.6297C4.16304 34.6662 2.84349 32.3531 1.81805 29.9206C1.27751 27.2259 1.13443 24.3006 0.752869 21.6058C0.752869 20.5883 0.752869 19.5788 0.752869 18.5613C0.983393 3.31489 9.03586 -1.08892 23.392 0.405515C24.3061 0.834767 25.6654 0.961953 26.6988 1.0017C27.2235 1.19248 27.9866 1.54224 28.6225 1.62968C28.8451 2.8459 28.1058 4.06211 28.0581 5.28628C27.7004 6.61378 27.1996 8.21951 27.2155 9.75369C26.5955 10.7473 27.2394 10.7314 25.888 10.803L25.8801 10.795Z" fill="#FF089C"/>
</g>
<defs>
<clipPath id="clip0_614_747">
<rect width="136.494" height="40" fill="white" transform="translate(0.752777)"/>
</clipPath>
</defs>
</svg>
