<svg width="122" height="48" viewBox="0 0 122 48" fill="none" xmlns="http://www.w3.org/2000/svg">
<g clip-path="url(#clip0_614_96)">
<path d="M60.4699 12.3031C60.5554 12.0074 60.6532 11.7141 60.7241 11.416C60.8218 10.9956 60.8732 10.5679 60.966 10.1451C61.0662 9.70028 61.0002 9.25303 60.9367 8.80089C60.8805 8.39275 60.7729 7.95772 61.0442 7.55446C61.142 7.41026 61.0907 7.20008 61.1518 7.01678C61.2569 6.70639 61.4499 6.50843 61.7408 6.40089C61.8092 6.37401 61.9118 6.37401 61.9754 6.40822C62.2076 6.53531 62.3835 6.45222 62.5717 6.30558C63.2243 5.79967 63.8866 5.30354 64.544 4.80252C64.8251 4.58989 65.0988 4.36749 65.4385 4.24285C65.4947 4.2233 65.5461 4.19886 65.6023 4.20374C65.7269 4.21352 65.7953 4.14753 65.8833 4.06199C66.1717 3.78582 66.5383 3.61719 66.8854 3.42167C67.164 3.26281 67.4744 3.21148 67.7848 3.14794C67.9632 3.11128 68.1074 2.96708 68.276 2.88399C68.5326 2.7569 68.8112 2.68358 69.0703 2.56138C69.1827 2.50761 69.2536 2.42207 69.3514 2.36342C69.8206 2.08236 70.3314 1.89417 70.83 1.68399C71.4165 1.43714 72.0129 1.21474 72.6092 0.99967C73.2226 0.777266 73.8507 0.589079 74.4617 0.359344C74.7501 0.251808 75.041 0.151604 75.3294 0.0489567C75.6275 -0.056135 75.9428 0.0122968 76.197 0.212704C76.3876 0.361788 76.4634 0.857918 76.3754 1.09499C76.3118 1.26362 76.2703 1.43714 76.2092 1.63755C76.4243 1.56668 76.6002 1.50069 76.7811 1.44936C77.0353 1.3736 77.2919 1.4347 77.5216 1.52268C78.074 1.73776 78.6336 1.93083 79.1713 2.18501C79.9901 2.5736 80.7135 3.06729 81.2316 3.83226C81.3562 4.01556 81.5347 4.16464 81.7204 4.29417C82.0015 4.49458 82.2116 4.75364 82.3021 5.08358C82.3558 5.28399 82.2703 5.50639 82.1285 5.63103C81.9159 5.81922 81.889 6.06607 81.8108 6.29824C81.7131 6.59152 81.6324 6.88969 81.5615 7.18786C81.52 7.35894 81.5004 7.53979 81.4736 7.71332C81.4002 8.20456 81.2805 8.68602 81.1778 9.16993C81.0703 9.67095 80.9383 10.1695 80.8332 10.673C80.7404 11.1178 80.6499 11.5626 80.5815 12.0099C80.5668 12.1076 80.474 12.1858 80.5106 12.2934C80.4984 12.3716 80.4984 12.4547 80.4691 12.528C80.3518 12.8408 80.3102 13.1732 80.2491 13.4958C80.1856 13.8306 80.1098 14.1655 80.034 14.4929C79.9338 14.9329 79.8434 15.3752 79.7237 15.8103C79.6381 16.1231 79.6137 16.4555 79.5257 16.7683C79.4059 17.196 79.3155 17.631 79.2104 18.0636C79.0833 18.5793 78.9905 19.1096 78.9514 19.64C78.9123 20.141 78.8145 20.6371 78.8292 21.1455C78.8463 21.6661 78.597 21.9349 78.1424 22.0547C78.0422 22.0815 78.0226 22.1329 78.0226 22.2648C78.0226 22.5239 78.1668 22.6999 78.267 22.9003C78.2866 22.9369 78.3135 22.9687 78.3184 23.0152C78.3721 23.609 78.3037 24.1956 78.2059 24.7748C78.1546 25.0681 78.1277 25.3663 78.0764 25.6595C78.0226 25.9553 78.0569 26.2657 78.0617 26.5712C78.0666 26.8693 78.0178 27.1455 77.8345 27.3948C77.7831 27.4657 77.7171 27.5512 77.7196 27.6612C77.7367 28.2551 77.6829 28.849 77.7123 29.4453C77.722 29.6286 77.7734 29.7997 77.8442 29.9585C77.9762 30.2518 78.0471 30.5329 77.8662 30.8286C77.8516 30.8506 77.8222 30.8824 77.8271 30.897C77.9811 31.2612 77.7905 31.5911 77.7269 31.9308C77.6805 32.1679 77.722 32.3023 77.9273 32.4245C78.1717 32.5687 78.2499 33.0111 78.0617 33.1944C78.0569 33.1235 78.1131 33.0209 77.9811 33.016C77.92 33.016 77.8198 32.9695 77.8051 33.0795C77.7929 33.1675 77.7587 33.2848 77.832 33.3435C77.8882 33.3875 77.942 33.2873 77.9909 33.2408C78.0104 33.2213 78.0373 33.2115 78.0617 33.1968C78.0642 33.3166 78.0055 33.3997 77.9053 33.4534C77.8247 33.4974 77.8027 33.5585 77.8002 33.649C77.7685 34.2502 77.8809 34.8441 77.8809 35.4429C77.8809 35.5308 77.9127 35.5675 78.0006 35.5162C78.5359 35.2033 79.1078 34.9614 79.6283 34.6241C80.0267 34.3651 80.4422 34.1549 80.9286 34.4775C80.9286 34.3553 80.9383 34.2551 80.9286 34.1549C80.8992 33.9031 81.0165 33.7296 81.212 33.5976C81.5738 33.3532 81.933 33.1015 82.3021 32.8693C82.9473 32.4636 83.5901 32.0579 84.2475 31.6767C85.1615 31.1439 86.0169 30.5158 87.0092 30.1174C87.7277 29.8266 88.3901 29.4135 89.0719 29.0469C89.4385 28.849 89.7685 28.5703 90.2328 28.5606C90.6679 28.5508 91.0149 28.695 91.2935 29.0029C91.4939 29.2229 91.6161 29.4966 91.709 29.785C91.7579 29.5553 91.8141 29.3378 91.907 29.13C91.9363 29.064 91.9265 28.9687 91.9021 28.8954C91.797 28.5655 91.7554 28.2257 91.753 27.886C91.7481 27.1284 91.7261 26.3708 91.8092 25.6131C91.8532 25.2123 91.8239 24.8017 91.8263 24.396C91.8263 24.33 91.819 24.2591 91.841 24.2029C91.929 23.9732 91.9632 23.7581 91.9412 23.4966C91.8679 22.5312 91.8874 21.5634 92.0096 20.6005C92.0096 20.5858 92.0121 20.5712 92.0169 20.5565C92.1196 20.229 92.1734 19.8942 92.1758 19.5471C92.1782 19.2196 92.1611 18.8946 92.2418 18.5622C92.3224 18.2347 92.4593 18.0025 92.7721 17.8852C92.8528 17.8559 92.9334 17.8192 92.9285 17.7386C92.9261 17.6726 92.8503 17.6359 92.777 17.609C92.4691 17.4893 92.342 17.3011 92.3395 16.9614C92.3347 16.2893 92.4593 15.6245 92.4398 14.9524C92.4324 14.6811 92.4862 14.405 92.4935 14.141C92.5106 13.5276 92.6377 12.9215 92.6059 12.308C92.667 11.9316 92.6744 11.5479 92.7184 11.1716C92.777 10.6681 92.7941 10.1573 92.8846 9.65873C92.9848 9.09906 93.0801 8.53938 93.1534 7.97482C93.2047 7.58134 93.256 7.18297 93.3269 6.79193C93.4076 6.34712 93.3587 5.89254 93.4784 5.45262C93.6471 4.83429 94.1579 4.19641 94.9693 4.27951C95.4239 4.32594 95.8222 4.52146 96.2377 4.67055C96.7901 4.87095 97.3302 5.11291 97.8239 5.43307C98.4886 5.86566 99.0679 6.396 99.3685 7.14875C99.5102 7.50069 99.3856 7.86973 99.1045 8.11657C98.8381 8.35364 98.7795 8.65425 98.6988 8.96219C98.6231 9.25303 98.5375 9.54142 98.4618 9.83226C98.4153 10.0107 98.408 10.1964 98.3738 10.3773C98.254 11.0005 98.0878 11.6115 97.9241 12.2225C97.9167 12.2494 97.9241 12.2787 97.9241 12.308C97.8679 12.5109 97.7848 12.7113 97.7579 12.919C97.6992 13.3785 97.6332 13.8404 97.5844 14.2999C97.533 14.8058 97.4768 15.3068 97.4108 15.8127C97.3424 16.3431 97.2398 16.8636 97.1493 17.3891C97.0687 17.851 97.0222 18.3227 96.9758 18.7919C96.9318 19.227 96.8389 19.6595 96.8658 20.1019C96.8829 20.3756 96.7681 20.5956 96.553 20.7691C96.4161 20.8815 96.3721 21.2555 96.4968 21.3899C96.9049 21.8274 96.8316 22.3699 96.7461 22.8612C96.663 23.35 96.597 23.8461 96.5432 24.3373C96.5041 24.7015 96.421 25.073 96.4968 25.4591C96.5457 25.706 96.4626 25.9748 96.289 26.1972C96.2377 26.2632 96.1595 26.3316 96.1717 26.4416C96.2402 27.0062 96.0666 27.5634 96.1522 28.1353C96.1986 28.4481 96.245 28.7463 96.3966 29.0274C96.4797 29.1813 96.4943 29.3964 96.4039 29.5015C96.2475 29.6824 96.2866 29.8705 96.2695 30.0636C96.2597 30.198 96.245 30.3276 96.2011 30.462C96.1326 30.6722 96.1717 30.9068 96.1766 31.1316C96.1766 31.1732 96.2011 31.1903 96.2426 31.205C96.7167 31.3614 96.7216 31.882 96.3868 32.1997C96.2817 32.2999 96.2597 32.383 96.2548 32.5076C96.2231 33.4974 96.3697 34.4848 96.3453 35.4746C96.3453 35.5602 96.3501 35.6481 96.3526 35.7361C96.1473 36.5231 96.1815 37.3296 96.1448 38.1312C96.1302 38.4514 96.1082 38.8156 95.8051 39.0551C95.7416 39.1064 95.7391 39.2042 95.7367 39.2946C95.7196 39.8665 95.3505 40.0033 94.9082 39.8909C94.8055 39.864 94.7102 39.8127 94.6076 39.7883C94.4243 39.7418 94.2459 39.6856 94.0601 39.8225C93.6984 40.0913 93.3269 39.9813 92.9774 39.7907C92.887 39.7418 92.8161 39.7369 92.7379 39.7565C92.3664 39.8591 92.078 39.6392 91.9827 39.2653C91.8727 38.8302 91.8312 38.3879 91.7554 37.9504C91.7017 37.6327 91.7286 37.3003 91.7261 36.9752C91.7212 36.5622 91.7188 36.1492 91.7139 35.7361C91.7188 35.5993 91.7139 35.46 91.7285 35.3255C91.7481 35.152 91.6723 35.0885 91.5208 35.1496C91.3228 35.2278 91.1395 35.1545 90.9587 35.1129C90.8145 35.0811 90.7045 35.0714 90.553 35.1129C90.2475 35.1985 89.9469 35.306 89.6487 35.4086C89.4336 35.482 89.2088 35.5699 89.0279 35.7239C88.7224 35.7875 88.4365 35.9121 88.1457 36.0123C87.4125 36.2616 86.6988 36.5646 86.0267 36.9532C85.3204 37.3614 84.5994 37.7426 83.8589 38.0848C83.0646 38.4538 82.2899 38.862 81.5591 39.3484C81.3367 39.4974 81.1167 39.517 80.8699 39.4314C80.6988 39.3728 80.5937 39.517 80.5717 39.6221C80.4275 40.2868 79.8972 40.5459 79.362 40.7903C79.0565 40.9296 78.7803 41.1178 78.4748 41.2522C78.0911 41.4257 77.8076 41.7337 77.4532 41.9463C77.309 42.0319 77.1648 42.0294 77.0182 42.0172C76.9009 42.0074 76.8153 42.0319 76.72 42.0978C76.3265 42.3716 75.8793 42.5695 75.564 42.9532C75.4491 43.0925 75.3685 43.249 75.2756 43.4005C75.129 43.6351 74.9676 43.8355 74.6597 43.8355C74.5766 43.8355 74.5302 43.9113 74.4471 43.9211C74.1758 43.9479 73.9656 43.8062 73.7823 43.5007C73.4157 42.8873 73.1395 42.2347 72.8951 41.5651C72.7192 41.086 72.5579 40.6021 72.4137 40.1158C72.355 39.9178 72.5139 39.7467 72.6116 39.583C72.7534 39.3386 72.9465 39.1357 73.164 38.95C73.2226 38.9011 73.2789 38.8424 73.2764 38.7374C73.2642 37.7378 73.2617 36.7382 73.2569 35.7361C73.2862 35.0665 73.2837 34.3968 73.3228 33.7247C73.3742 32.8498 73.3375 31.9699 73.34 31.095C73.34 30.8384 73.318 30.5769 73.4768 30.3496C73.5013 30.3154 73.4988 30.2958 73.4866 30.2567C73.3204 29.7117 73.2984 29.1496 73.274 28.585C73.2666 28.4408 73.3815 28.3088 73.3326 28.1646C73.2495 27.9178 73.3302 27.6734 73.3326 27.429C73.3424 26.8938 73.3424 26.3561 73.3497 25.8184C73.3497 25.684 73.3668 25.5545 73.4108 25.42C73.4841 25.1854 73.5501 24.9435 73.5208 24.6844C73.5037 24.528 73.4548 24.374 73.4499 24.22C73.4157 23.4771 73.4304 22.7341 73.5306 21.996C73.5306 21.9813 73.5306 21.9667 73.5379 21.952C73.6479 21.6025 73.7188 21.2481 73.6968 20.8791C73.6748 20.4954 73.7017 20.1141 73.7945 19.7451C73.8679 19.4543 73.9974 19.1805 74.342 19.1145C74.4202 19.0999 74.4789 19.095 74.4813 18.9923C74.4813 18.8897 74.4373 18.8628 74.342 18.8433C74.0976 18.7919 73.885 18.5035 73.8703 18.2567C73.8507 17.9316 73.9803 17.6213 73.9583 17.2938C73.9045 16.4995 74.0267 15.7076 74.0683 14.9158C74.0829 14.6347 74.1049 14.3439 74.1465 14.0604C74.2174 13.5862 74.3004 13.1145 74.3078 12.6355C74.3078 12.528 74.3395 12.4278 74.3689 12.3276C74.3738 11.9243 74.4569 11.5284 74.4984 11.13C74.5253 10.8612 74.5302 10.5826 74.5864 10.3186C74.7013 9.77116 74.7306 9.21637 74.8015 8.66403C74.8552 8.25344 74.9114 7.83796 74.9334 7.42248C74.9457 7.19275 74.9677 6.94835 75.0239 6.7235C75.129 6.31046 75.1778 5.88521 75.2414 5.46729C75.2878 5.17401 75.3343 4.8734 75.3734 4.57767C75.4051 4.33572 75.4002 4.08888 75.4564 3.85425C75.5664 3.40945 75.4907 2.9402 75.6495 2.50272C75.6593 2.47584 75.6446 2.41719 75.6251 2.40497C75.5909 2.38541 75.5567 2.40252 75.5175 2.43674C75.3587 2.58093 75.1681 2.69091 75.0263 2.84977C74.8381 3.05751 74.667 3.27503 74.5522 3.54387C74.4031 3.8958 74.2956 4.26484 74.122 4.60211C74.0145 4.80985 73.9412 5.02248 73.8801 5.24C73.7725 5.62126 73.5599 5.91698 73.2446 6.15649C72.966 6.36912 72.6239 6.4571 72.333 6.64529C72.2695 6.68684 72.2328 6.71128 72.2059 6.78704C72.0324 7.26851 71.3945 7.60334 70.9008 7.47625C70.8544 7.46403 70.8422 7.48847 70.8129 7.50069C70.3387 7.72065 69.8719 7.96016 69.4467 8.25344C68.9457 8.5956 68.5057 9.02329 68.0365 9.41189C67.5526 9.8127 67.0564 10.1989 66.5799 10.6119C66.3697 10.7927 66.1033 10.9321 66.0153 11.2278C65.9102 11.5846 65.8956 11.9536 65.8418 12.3178C65.766 12.3178 65.7782 12.3789 65.7685 12.4278C65.7025 12.7162 65.6292 13.0021 65.5314 13.2807C65.3994 13.6522 65.2797 14.0261 65.155 14.4001C65.0475 14.7251 64.9253 15.0477 64.8349 15.3801C64.7787 15.5903 64.6564 15.798 64.7298 16.0278C64.7786 16.1793 64.8153 16.3284 64.8031 16.4897C64.7958 16.5899 64.8691 16.607 64.9302 16.5728C65.1844 16.4261 65.3823 16.5777 65.5705 16.7023C65.6487 16.7536 65.7147 16.7732 65.7856 16.7463C66.2793 16.5606 66.7705 16.3577 67.2666 16.1769C67.4939 16.0938 67.7237 16.0107 67.9656 15.9813C68.4495 15.9251 68.8528 16.1426 69.2414 16.3797C69.5053 16.541 69.6006 16.9296 69.4393 17.2278C69.3367 17.416 69.2145 17.587 69.2414 17.8339C69.2683 18.0856 69.2878 18.3471 69.1705 18.5989C69.0507 18.8579 68.9505 19.1292 68.9017 19.4151C68.821 19.8917 68.623 20.3145 68.3151 20.6811C67.9534 21.1113 67.533 21.4803 67.0858 21.82C66.7143 22.0987 66.355 22.3968 65.9738 22.6657C65.3554 23.1031 64.7762 23.587 64.2068 24.0881C64.1237 24.1614 64.0577 24.2616 63.9599 24.3178C63.7033 24.462 63.6935 24.5891 63.9281 24.7504C64.1334 24.8897 64.2288 25.1708 64.1383 25.3956C63.9428 25.8722 63.7351 26.3659 63.7057 26.8644C63.6691 27.495 63.5053 28.1524 63.8475 28.7732C64.0821 29.1985 63.8353 29.6408 63.8011 30.0734C63.7791 30.352 63.6862 30.6257 63.5909 30.8921C63.5762 30.9288 63.5542 30.9972 63.6202 31.0241C63.6764 31.0461 63.6911 30.985 63.7204 30.9581C64.676 30.1027 65.6243 29.24 66.6068 28.4139C66.8023 28.2477 66.9905 28.1255 67.2544 28.1646C67.3351 28.1769 67.3839 28.1598 67.4377 28.0693C67.5697 27.8518 67.7457 27.6685 67.9803 27.5463C68.3762 27.3435 68.7624 27.1284 69.1558 26.9206C69.5493 26.7154 69.9233 26.4783 70.3754 26.3903C70.5465 26.3561 70.7273 26.3414 70.9008 26.2828C71.2088 26.1801 71.5192 26.053 71.8589 26.0775C72.4088 26.1166 72.5945 26.5174 72.5408 26.9598C72.5286 27.0526 72.4846 27.1455 72.4699 27.2481C72.4112 27.6612 72.2548 28.0278 71.9713 28.3431C71.5876 28.7732 71.0915 29.13 71.0084 29.7655C70.9815 29.9756 70.8617 30.1687 70.9033 30.3936C70.9375 30.5744 70.8886 30.7504 70.7982 30.9092C70.7151 31.0534 70.7004 31.2147 70.6418 31.3663C70.5294 31.6595 70.4536 31.9699 70.2165 32.2046C69.8744 32.5418 69.5444 32.8913 69.234 33.2628C68.8992 33.6612 68.5571 34.0498 68.1465 34.387C67.6772 34.7732 67.2397 35.2131 66.8927 35.7264C66.6605 35.8632 66.5383 36.1027 66.3721 36.2982C65.9713 36.7675 65.6023 37.2636 65.2308 37.7573C64.8642 38.2437 64.4854 38.7227 64.0992 39.1944C63.6935 39.6881 63.3734 40.2429 62.9799 40.7463C62.8552 40.9076 62.7013 41.0396 62.474 41.0494C62.3371 41.0567 62.2882 41.1593 62.2809 41.2864C62.2687 41.5137 62.1147 41.6604 61.9314 41.7288C61.709 41.8095 61.4915 41.7655 61.3131 41.5699C61.01 41.2376 60.8243 40.827 60.553 40.4726C60.4039 40.2795 60.2133 40.1475 60.0275 40.0058C59.722 39.7736 59.5461 39.4583 59.3896 39.1162C59.2821 38.8815 59.2968 38.5809 59.0475 38.4172C58.9375 38.3463 58.8153 38.2901 58.7151 38.2094C58.4316 37.9797 58.3778 37.6156 58.5 37.2612C58.632 36.8775 58.8178 36.5231 59.1501 36.3105C59.3994 36.1516 59.4336 35.9781 59.3921 35.7337C59.397 35.46 59.3603 35.1911 59.3334 34.9198C59.2797 34.3773 59.3041 33.8274 59.2406 33.2799C59.1672 32.6665 59.2283 32.0433 59.1624 31.4225C59.0744 30.5989 59.1746 29.763 59.0646 28.9345C59.0304 28.673 59.1013 28.4042 59.1135 28.1426C59.1672 26.7716 59.0842 25.3956 59.221 24.0245C59.2552 23.6824 59.2308 23.3378 59.2846 22.9932C59.3554 22.5117 59.3383 22.018 59.3823 21.5292C59.4239 21.0795 59.5265 20.6323 59.4947 20.1752C59.4947 20.1606 59.4947 20.1459 59.4996 20.1312C59.5852 19.7109 59.6414 19.2856 59.6634 18.8579C59.6707 18.7162 59.6854 18.5769 59.7171 18.4351C59.766 18.2127 59.7709 17.9708 59.7123 17.7459C59.6683 17.5724 59.6658 17.4257 59.7147 17.2498C59.7636 17.0763 59.8564 16.9296 59.92 16.7659C60.0666 16.3773 60.0129 15.9593 60.074 15.5585C60.1302 15.187 60.1766 14.8058 60.2084 14.427C60.2304 14.1801 60.2426 13.9284 60.2866 13.6815C60.3672 13.2318 60.4626 12.7846 60.4479 12.3227L60.4699 12.3031Z" fill="#B3DA00"/>
<path d="M11.5166 35.7118C11.4702 35.79 11.4287 35.8682 11.4091 35.9586C11.3578 36.1908 11.2331 36.3863 11.0254 36.5061C10.6466 36.7236 10.4291 37.0804 10.214 37.4324C9.85717 38.0165 9.45392 38.5615 8.93579 39.0112C8.65962 39.2507 8.34679 39.4291 7.96308 39.4706C7.60137 39.5073 7.2641 39.6466 6.92194 39.759C6.86817 39.7761 6.81685 39.7981 6.75819 39.8006C6.23029 39.8226 5.70728 39.8397 5.19893 39.6417C4.79811 39.4853 4.48039 39.2238 4.18956 38.9207C4.06003 38.7888 3.95738 38.6299 3.83029 38.4979C3.62744 38.2853 3.62988 38.0507 3.72276 37.7941C3.80096 37.5766 3.69098 37.3761 3.62011 37.1855C3.43437 36.6918 3.07999 36.3301 2.65473 36.0295C2.53498 35.9464 2.49832 35.7827 2.3639 35.7093C1.9973 35.0959 1.71868 34.4434 1.47184 33.7713C1.34231 33.4169 1.21278 33.0625 1.07103 32.7106C0.961045 32.4393 0.819294 32.168 0.809518 31.8674C0.802186 31.6205 0.721534 31.3981 0.640883 31.1757C0.538235 30.8898 0.394039 30.6185 0.350048 30.313C0.35738 30.1444 0.342716 29.9782 0.310944 29.812C0.310944 29.812 0.303612 29.812 0.301168 29.8095C0.301168 29.8193 0.301168 29.8315 0.303612 29.8413C0.288948 29.7093 0.276728 29.5749 0.262064 29.4429C0.252288 29.2768 0.240068 29.1081 0.230292 28.9419C0.225404 28.9444 0.220516 28.9493 0.213184 28.9517C0.218072 28.9566 0.225404 28.959 0.225404 28.9639C0.225404 28.9761 0.22296 28.9859 0.220516 28.9981C0.166748 28.8588 0.200964 28.7122 0.171636 28.5704C0.16186 28.4336 0.14964 28.2943 0.139864 28.1574C0.134976 28.1574 0.127644 28.1647 0.1252 28.1623C0.110536 28.1379 0.14964 28.1476 0.134976 28.1721C0.130088 28.1818 0.132532 28.1941 0.132532 28.2038C0.0812085 28.0694 0.11298 27.9228 0.0860965 27.7859C0.0983164 27.6271 0.0689885 27.4731 0.0396606 27.3191C0.0396606 27.3118 0.0518806 27.302 0.0567686 27.2947C0.0518806 27.2996 0.0469926 27.302 0.0396606 27.3069C0.0641006 27.3216 0.0567686 27.3411 0.0445486 27.3582C-0.0116632 27.2165 0.0225527 27.0625 -0.00433121 26.9183C-0.00433121 25.8747 -0.00433121 24.8336 -0.00433121 23.79C-0.0189952 23.069 0.0616566 22.3529 0.0787645 21.6344C0.0860965 21.2531 0.0592126 20.8694 0.132532 20.4906C0.132532 20.5053 0.127644 20.5224 0.1252 20.537C0.1252 20.5297 0.120312 20.5248 0.120312 20.5175C0.144752 20.3317 0.178968 20.1484 0.166748 19.9603C0.181412 19.8307 0.193632 19.7012 0.208296 19.5692C0.21074 19.579 0.215628 19.5912 0.218072 19.601C0.218072 19.5937 0.218072 19.5863 0.220516 19.579C0.232736 19.4739 0.242512 19.3688 0.254732 19.2613C0.27184 18.9607 0.337828 18.6674 0.386707 18.3717C0.452695 17.9733 0.528459 17.5749 0.601779 17.179C0.670211 16.8173 0.73131 16.4507 0.811962 16.0939C0.921942 15.5977 1.01481 15.0992 1.1199 14.603C1.19567 14.2438 1.27388 13.882 1.33498 13.5203C1.3643 13.3566 1.37897 13.1831 1.4254 13.0193C1.49384 12.7823 1.59404 12.5525 1.5696 12.2959C1.70402 12.1004 1.67714 11.8609 1.73579 11.6458C1.86043 11.179 1.94842 10.7 2.06817 10.2307C2.13905 9.95211 2.20993 9.67105 2.27836 9.39244C2.3639 9.0405 2.46899 8.69345 2.5863 8.35129C2.69139 8.04824 2.76471 7.73296 2.8698 7.42747C3.03844 6.92645 3.20952 6.42543 3.39037 5.92686C3.56878 5.43072 3.76675 4.94437 4.01359 4.48001C4.41196 3.72971 4.89343 3.03806 5.58508 2.52482C6.07876 2.15822 6.61155 1.88205 7.24944 1.82828C7.67225 1.79407 8.06573 1.89182 8.46166 1.98958C8.54964 2.01158 8.63518 2.0238 8.71583 2.0018C9.00911 1.91871 9.2975 1.92115 9.59078 2.0018C9.80341 2.05802 10.0283 1.99692 10.2482 2.09223C10.4071 2.16066 10.539 2.23398 10.6564 2.36352C10.9643 2.70812 11.3822 2.90608 11.761 3.15048C12.3867 3.55374 12.8779 4.08653 13.1272 4.77574C13.2299 5.05679 13.3985 5.28164 13.5183 5.54315C13.6869 5.90975 13.6649 6.23724 13.4596 6.57696C13.3741 6.71871 13.2861 6.85802 13.1908 6.99244C13.1101 7.10975 13.137 7.26127 13.1004 7.39569C12.9586 7.91626 12.6971 8.38062 12.4942 8.87431C12.4014 9.1016 12.3549 9.346 12.2865 9.58307C12.2181 9.81769 12.1643 10.0596 12.0739 10.2869C12.0445 10.3627 12.0226 10.436 12.0226 10.5093C12.0177 10.8759 11.9468 11.2303 11.871 11.5871C11.8221 11.8193 11.8393 12.0637 11.8588 12.3032C11.8075 12.6161 11.9223 12.9142 11.937 13.2197C11.9492 13.4763 12.0128 13.7281 12.0543 13.9798C12.135 14.4637 11.9981 14.7937 11.546 15.0112C11.3309 15.1138 11.1036 15.1798 10.9032 15.3216C10.6148 15.5269 10.2922 15.4902 9.98915 15.3387C9.33905 15.0136 8.86247 14.5199 8.74027 13.7867C8.65718 13.2882 8.53009 12.8018 8.45432 12.3032C8.47876 11.6434 8.35412 10.5851 8.23436 10.4311C8.0584 10.8124 7.87021 11.1888 7.70891 11.5774C7.61115 11.8169 7.45962 12.0368 7.41074 12.2983C7.225 12.6772 7.15656 13.0902 7.07347 13.4959C6.99282 13.8918 6.86817 14.2755 6.76553 14.6641C6.66532 15.0454 6.55534 15.4267 6.46247 15.8079C6.36471 16.2136 6.2694 16.6218 6.16675 17.025C6.025 17.5725 5.89058 18.1199 5.76593 18.6698C5.67062 19.0975 5.57041 19.5277 5.50443 19.9603C5.42377 20.4955 5.31135 21.0234 5.24292 21.5586C5.1916 21.9692 5.11094 22.3774 5.07428 22.788C5.03274 23.2376 4.92764 23.6849 4.95942 24.1419C4.96919 24.2739 4.95453 24.4083 4.90565 24.5427C4.85677 24.6796 4.85677 24.8458 4.90076 24.9949C4.97408 25.2466 5.05229 25.4959 5.05473 25.7623C5.05473 26.0531 5.04251 26.344 5.05962 26.6324C5.0694 26.7961 4.96675 26.9403 4.98874 27.0943C5.02785 27.346 5.05962 27.6075 5.15982 27.8372C5.40178 28.3994 5.46777 28.9981 5.56064 29.5896C5.63885 30.0735 5.69995 30.5672 5.73172 31.0584C5.76349 31.5179 5.84414 31.9749 5.83436 32.4368C5.82459 32.8523 5.92479 33.2434 6.11542 33.6051C6.18386 33.7322 6.15453 33.9326 6.35005 33.9863C6.4698 34.0181 6.56756 34.0865 6.66043 34.1647C6.73375 34.2283 6.75331 34.2185 6.82418 34.1305C7.05392 33.8446 7.31298 33.5855 7.61359 33.3607C7.91665 33.1358 8.26125 32.9403 8.42988 32.5786C8.55453 32.3122 8.62296 32.0189 8.7476 31.7501C9.21196 30.7505 9.8694 29.8706 10.4755 28.959C10.759 28.5313 11.0498 28.1061 11.2429 27.6295C11.4702 27.0674 11.7464 26.5444 12.2352 26.1607C12.3403 26.0776 12.4087 25.9651 12.4796 25.8454C12.6458 25.5546 12.7729 25.2442 12.9708 24.9656C13.4816 24.2421 14.0633 23.5896 14.7378 23.0177C14.8331 22.937 14.9871 22.8759 14.9871 22.7489C14.9871 22.5142 15.058 22.2967 15.0727 22.067C15.0995 21.5855 15.0678 21.1065 15.1435 20.6201C15.2168 20.1484 15.1606 19.6572 15.2462 19.1782C15.2975 18.8898 15.2853 18.5941 15.3171 18.3008C15.3879 17.6898 15.449 17.0763 15.5004 16.4605C15.537 16.0157 15.6445 15.5782 15.6128 15.1285C15.6128 15.1065 15.6128 15.0845 15.6177 15.0625C15.7008 14.603 15.7716 14.1387 15.8743 13.6816C15.9232 13.4641 15.9354 13.2442 15.9843 13.0291C16.038 12.7871 16.0967 12.5476 16.1162 12.3008C16.2213 11.8438 16.2702 11.3794 16.3606 10.9199C16.4095 10.6706 16.4217 10.4091 16.4755 10.1574C16.5488 9.81525 16.5439 9.46576 16.6221 9.12115C16.6808 8.86698 16.6686 8.59569 16.7248 8.33419C16.8079 7.94804 16.8739 7.557 16.9692 7.17329C17.0743 6.75048 17.1427 6.32767 17.0205 5.88775C16.8665 5.33297 17.3016 4.48734 17.8417 4.31382C18.1374 4.2185 18.4625 4.23806 18.7655 4.31138C19.1761 4.40914 19.5769 4.54111 19.9582 4.72686C20.5619 5.02502 21.1411 5.37696 21.6445 5.81443C22.0429 6.16148 22.2824 6.63072 22.3289 7.19773C22.3729 7.71341 22.2409 8.18755 22.148 8.67635C22.1162 8.84254 22.0918 9.01606 22.0722 9.17981C22.0405 9.44132 21.9818 9.70282 21.9427 9.96189C21.8914 10.2943 21.8865 10.6389 21.7276 10.9517C21.647 11.1081 21.6665 11.3012 21.6348 11.4747C21.5859 11.746 21.4759 12.0148 21.5223 12.3008C21.4955 12.3594 21.4515 12.4157 21.4466 12.4743C21.4148 12.836 21.3146 13.1904 21.2755 13.5472C21.2291 13.9725 21.1118 14.3855 21.0653 14.8132C21.0458 14.999 21.0336 15.1994 20.9822 15.3827C20.8625 15.8079 20.8258 16.2478 20.75 16.6804C20.7061 16.9322 20.6621 17.1888 20.623 17.4405C20.5936 17.6287 20.5961 17.8267 20.5374 18.01C20.4445 18.3106 20.3688 18.6087 20.3834 18.9289C20.3932 19.1097 20.469 19.2711 20.4763 19.4568C20.491 19.8918 20.3492 20.3122 20.3834 20.7472C20.3883 20.8059 20.3443 20.8865 20.4299 20.9183C20.4861 20.9403 20.5301 20.8914 20.579 20.8621C21.1777 20.5053 21.7863 20.168 22.4144 19.8625C23.1085 19.5277 23.8564 19.3321 24.5529 19.0071C24.6238 18.9753 24.658 18.946 24.6629 18.8727C24.6971 18.4963 24.7631 18.1248 24.8144 17.7509C24.8682 17.355 24.9659 16.9688 25.0246 16.5753C25.0515 16.3945 25.0564 16.2038 25.1126 16.0279C25.225 15.6759 25.2763 15.3093 25.335 14.9501C25.3985 14.5566 25.4914 14.168 25.5525 13.7745C25.5794 13.5937 25.5916 13.4055 25.6356 13.2271C25.7113 12.924 25.8116 12.6258 25.792 12.3081C25.9484 12.1322 25.8849 11.8975 25.9338 11.6947C25.99 11.4576 26.0242 11.2034 26.0633 10.959C26.1268 10.5778 26.183 10.1941 26.2857 9.81769C26.3663 9.5293 26.4323 9.22869 26.5008 8.93541C26.5839 8.59081 26.623 8.23887 26.7232 7.9016C26.7354 7.86005 26.7354 7.81362 26.7305 7.77207C26.6718 7.32237 26.8576 6.93378 27.0336 6.5403C27.0995 6.39366 27.1729 6.22991 27.1631 6.07838C27.1386 5.63358 27.3342 5.26453 27.493 4.87349C27.6152 4.568 27.6812 4.24294 27.7961 3.935C27.9329 3.5684 27.8694 3.19447 27.8743 2.82543C27.8792 2.45394 28.0111 2.13622 28.2238 1.83806C28.3606 1.64498 28.5195 1.56922 28.7541 1.61321C29.2869 1.71341 29.8295 1.75741 30.3672 1.76474C30.702 1.76963 30.9733 1.88694 31.2348 2.05802C31.6967 2.36107 32.1244 2.71056 32.5056 3.10893C32.7427 3.35822 32.882 3.68327 33.014 4.00099C33.0653 4.12075 33.1313 4.23561 33.1851 4.35292C33.3733 4.77085 33.2828 5.14722 33.0336 5.51626C32.7427 5.94641 32.579 6.42787 32.4812 6.94111C32.4006 7.36637 32.2466 7.77451 32.0975 8.18266C31.9777 8.51015 31.8922 8.84987 31.792 9.1847C31.7138 9.4462 31.6283 9.70527 31.5647 9.96922C31.5061 10.2161 31.4303 10.458 31.3594 10.7C31.2714 11.0104 31.1957 11.3256 31.1223 11.6385C31.071 11.856 30.9659 12.0711 31.0026 12.3081C30.9757 12.3155 30.9439 12.3179 30.9366 12.3546C30.834 12.8751 30.702 13.3884 30.5847 13.9065C30.4894 14.3342 30.3867 14.7619 30.2889 15.1896C30.1692 15.7028 30.0617 16.2209 29.8832 16.722C29.8026 16.9468 29.9248 17.179 29.8832 17.4087C29.8564 17.5554 29.9028 17.614 30.0617 17.6189C30.3109 17.6262 30.4894 17.8242 30.5822 18.0442C30.6849 18.2837 30.6409 18.4963 30.5724 18.7236C30.4625 19.0804 30.3452 19.4299 30.0885 19.7183C29.9028 19.926 29.7684 20.168 29.7855 20.4662C29.7904 20.5419 29.7537 20.6152 29.7342 20.6886C29.6437 21.021 29.4922 21.3362 29.5264 21.7028C29.5704 22.2038 29.4678 22.6926 29.2747 23.1619C29.0987 23.592 28.8348 23.9757 28.6246 24.3888C28.5806 24.4768 28.5562 24.5183 28.6246 24.6063C28.7908 24.8238 28.7737 25.0609 28.6295 25.2833C28.4462 25.5619 28.3729 25.8527 28.3924 26.19C28.4046 26.4222 28.4779 26.6397 28.4779 26.8719C28.4779 27.7713 28.4804 28.6706 28.4828 29.57C28.4828 30.0222 28.3802 30.4572 28.2433 30.8825C28.2262 30.9387 28.2189 30.9875 28.28 31.034C28.4926 31.1904 28.4975 31.4177 28.4853 31.6523C28.4804 31.7281 28.4462 31.8405 28.5293 31.8723C28.7541 31.9578 28.8128 32.1729 28.8812 32.3513C28.9716 32.5859 29.0694 32.8254 28.9423 33.1114C28.8543 33.3093 28.7126 33.4609 28.6173 33.6515C28.4804 33.9277 28.2751 34.1892 28.236 34.4898C28.1847 34.8662 28.2335 35.2572 28.2433 35.6409C28.2433 35.6702 28.2824 35.6996 28.3044 35.7289C28.2018 36.6136 28.2042 37.5008 28.2189 38.3904C28.2287 38.9574 28.0869 39.5 27.9769 40.0523C27.8743 40.5582 27.6885 41.0397 27.5883 41.5456C27.5101 41.9464 27.4466 42.3423 27.4246 42.7505C27.3977 43.2368 26.8967 43.5741 26.4177 43.3077C25.9997 43.0755 25.8018 42.6821 25.6087 42.2788C25.3887 41.8242 25.2372 41.3452 25.1052 40.8613C25.0099 40.5142 24.9684 40.1525 24.9122 39.7957C24.8266 39.2629 24.7484 38.7277 24.6678 38.1924C24.6653 38.1704 24.6604 38.1484 24.6629 38.1264C24.68 37.6792 24.5773 37.2393 24.548 36.7945C24.526 36.4401 24.4942 36.0808 24.4429 35.7264C24.3989 35.5627 24.3965 35.3916 24.3916 35.223C24.3843 35.0201 24.4234 34.8124 24.3574 34.6193C24.3036 34.4605 24.3012 34.3163 24.3525 34.1599C24.4038 33.9986 24.4283 33.8104 24.3696 33.6686C24.2645 33.4144 24.2767 33.1456 24.2425 32.8914C24.1667 32.3073 24.2474 31.7134 24.1472 31.122C24.0714 30.6772 24.1252 30.2201 24.0665 29.7656C23.9883 29.1668 24.0177 28.5582 23.9761 27.9546C23.9175 27.1309 23.9492 26.3024 23.9395 25.4763C23.9395 25.4177 23.9712 25.3444 23.893 25.3028C23.8124 25.2613 23.7782 25.337 23.7293 25.3688C23.2967 25.6572 22.9105 26.0042 22.5268 26.3489C21.9574 26.8596 21.3366 27.3167 20.8111 27.8788C20.6572 28.0425 20.4641 28.1647 20.2539 28.2625C20.1806 28.2967 20.034 28.3114 20.0437 28.4434C20.0682 28.7415 19.9411 29.0226 19.9435 29.3183C19.9435 29.5114 19.9582 29.7045 19.88 29.8951C19.8409 29.9904 19.8482 30.1126 19.8849 30.2177C19.9997 30.5501 19.968 30.8971 19.9215 31.2246C19.8702 31.5766 19.6771 31.9089 19.8531 32.2755C19.8751 32.322 19.8629 32.3928 19.8482 32.4466C19.7333 32.8865 19.6894 33.3313 19.6869 33.7835C19.6869 34.1305 19.682 34.48 19.6747 34.8271C19.6698 35.1277 19.5598 35.4209 19.616 35.7264C19.6063 36.3423 19.6234 36.9607 19.5769 37.5741C19.5232 38.2511 19.5256 38.9452 19.247 39.588C19.093 39.9448 19.005 40.3187 18.8926 40.6878C18.8608 40.7904 18.7729 40.8759 18.7313 40.9786C18.5236 41.5016 18.3183 42.0271 18.1179 42.555C18.0323 42.7774 17.8979 42.9729 17.7097 43.1024C17.5753 43.1977 17.4898 43.3102 17.4238 43.447C17.2576 43.7965 16.9399 43.9823 16.5733 43.9065C16.3484 43.8601 16.0576 43.5472 16.0283 43.2319C16.0014 42.9631 15.9012 42.7334 15.7741 42.5036C15.6274 42.2372 15.5663 41.9317 15.5101 41.6409C15.4075 41.1155 15.3757 40.5778 15.3048 40.0474C15.2046 39.2971 15.1753 38.5444 15.1411 37.7892C15.1118 37.1049 15.0653 36.4181 15.0604 35.7338C15.0458 35.2377 15.0727 34.744 15.0042 34.2454C14.9382 33.7615 14.9798 33.2605 14.97 32.7692C14.97 32.6788 14.948 32.5908 14.9211 32.5004C14.8674 32.3146 14.8111 32.102 14.8478 31.9187C14.9187 31.5717 14.9138 31.2271 14.8527 30.8922C14.8234 30.7334 14.7843 30.5672 14.8258 30.4279C14.904 30.1615 14.8796 29.8975 14.8845 29.6336C14.8918 29.0543 14.8869 28.4727 14.8845 27.8935C14.8845 27.8177 14.8771 27.7444 14.8698 27.6368C14.6059 28.0621 14.6352 28.5167 14.5594 28.9419C14.5105 29.2108 14.4079 29.4381 14.2417 29.6434C13.9411 30.0173 13.5183 30.2568 13.1834 30.5941C13.1126 30.6649 13.0393 30.7334 13.0515 30.8482C13.1028 31.3468 13.0393 31.8234 12.8095 32.2804C12.6091 32.6788 12.5016 33.1187 12.2401 33.4926C12.1228 33.6613 12.0226 33.8397 11.9908 34.067C11.9663 34.2552 11.9615 34.4531 11.915 34.6389C11.8173 35.0177 11.6902 35.3867 11.4995 35.7289L11.5166 35.7118ZM25.8604 26.5541C25.8409 26.5053 25.8042 26.4417 25.7333 26.4222C25.6942 26.41 25.6356 26.4393 25.6576 26.4955C25.6796 26.5566 25.6869 26.6446 25.7749 26.6544C25.8164 26.6592 25.8604 26.6348 25.8604 26.5566V26.5541ZM25.7676 27.8348C25.5623 27.957 25.7285 28.0596 25.7578 28.1672C25.7798 28.0572 25.8189 27.9472 25.7676 27.8348Z" fill="#B3DA00"/>
<path d="M34.5951 35.709C34.4583 36.1587 34.5243 36.6255 34.4876 37.0826C34.4705 37.2903 34.4461 37.5029 34.363 37.7009C34.2163 38.0528 33.9084 38.2312 33.6004 38.4023C33.1336 38.6589 32.6619 38.9107 32.178 39.1355C31.8628 39.2822 31.5182 39.3628 31.1833 39.4606C30.7996 39.5705 30.3988 39.5779 30.0127 39.6927C29.5141 39.8418 28.9202 39.4606 28.9251 38.9131C28.9275 38.5465 28.9837 38.1946 29.0864 37.8451C29.1328 37.6838 29.1499 37.5078 29.1719 37.3441C29.2477 36.8039 29.3259 36.2589 29.277 35.7115C29.4139 35.186 29.4285 34.641 29.5165 34.1082C29.5727 33.7734 29.6216 33.4288 29.6485 33.0842C29.6656 32.8764 29.6583 32.6418 29.7438 32.4536C29.91 32.0919 29.9027 31.7058 29.9564 31.3318C30.0127 30.9335 29.9955 30.5204 29.9736 30.1172C29.9589 29.8166 30.0127 29.5233 30.086 29.2447C30.1813 28.8756 30.2766 28.5139 30.2326 28.1302C30.1911 27.7734 30.3035 27.4312 30.3475 27.0842C30.3695 26.9033 30.3768 26.7127 30.4281 26.5367C30.5503 26.1261 30.587 25.7009 30.6579 25.283C30.7312 24.8479 30.8192 24.4153 30.8729 23.9754C30.8925 23.8117 30.9194 23.6382 30.9536 23.472C31.0342 23.054 31.1296 22.641 31.1931 22.2206C31.2249 22.008 31.2591 21.7905 31.3129 21.5925C31.4302 21.1624 31.5182 20.7274 31.6208 20.2972C31.7332 19.8231 31.8799 19.3587 32.0094 18.8895C32.134 18.4373 32.2782 17.9877 32.4053 17.5355C32.53 17.0883 32.6497 16.6337 32.7915 16.1938C33.009 15.5119 33.1996 14.8227 33.4538 14.1506C33.686 13.5347 33.9108 12.9188 34.1503 12.3054C34.5487 11.362 34.9446 10.4162 35.4408 9.51677C35.6974 9.05242 35.9393 8.57095 36.0591 8.05282C36.1666 7.57869 36.3059 7.12166 36.6017 6.73796C36.9316 6.31026 37.2786 5.88012 37.8017 5.6626C38.09 5.54284 38.4395 5.65282 38.596 5.91189C38.6717 6.03653 38.7768 6.10252 38.9015 6.11229C39.2094 6.13429 39.5027 6.23205 39.8033 6.27604C40.1894 6.33225 40.5169 6.52533 40.8615 6.67441C41.0962 6.77462 41.3357 6.88704 41.541 7.06056C41.7805 7.26097 41.932 7.50293 42.0078 7.79865C42.1275 8.2679 42.0542 8.73714 42.0273 9.21128C41.9931 9.87604 42.0053 10.5433 42.0029 11.2105C42.0029 11.5722 42.0102 11.9339 42.0127 12.298C42.0175 12.9384 42.0249 13.5787 42.0615 14.2215C42.1031 14.9742 42.1153 15.7343 42.0298 16.4944C41.9784 16.9563 42.0395 17.428 42.064 17.8948C42.1129 18.8284 42.0884 19.7644 42.0933 20.7005C42.0933 20.7689 42.0786 20.8398 42.1422 20.9107C42.1422 20.7958 42.2326 20.7274 42.2644 20.6272C42.3964 20.1897 42.5797 19.7742 42.7459 19.349C42.807 19.1901 42.9976 19.0997 43.0196 18.9579C43.0733 18.6353 43.3055 18.5204 43.5475 18.4056C43.6281 18.3665 43.6575 18.3274 43.655 18.2467C43.6452 17.9974 43.7332 17.7604 43.8481 17.5575C43.9825 17.3229 44.0705 17.1323 44.0216 16.8316C43.9067 16.1449 44.1292 15.4557 44.1047 14.7616C44.1047 14.7298 44.1218 14.6932 44.1389 14.6638C44.3687 14.2703 44.6082 13.8817 44.9063 13.5347C45.0017 13.4247 45.0945 13.3147 45.1287 13.1828C45.1727 13.0141 45.2632 12.8773 45.3438 12.7282C45.4196 12.5864 45.5833 12.4984 45.5858 12.3176C45.774 12.2027 45.8595 11.9974 45.9035 11.8117C45.9524 11.6088 45.9793 11.3913 46.0061 11.1787C46.0452 10.8952 46.1283 10.6386 46.3483 10.443C46.5267 10.2842 46.5389 10.0496 46.6122 9.84671C46.7662 9.42146 46.908 8.98887 47.0351 8.55629C47.1328 8.22146 47.2501 7.89152 47.3308 7.54936C47.4408 7.08256 47.563 6.6182 47.7243 6.16117C47.8782 5.73103 48.0395 5.30822 48.2791 4.91718C48.5503 4.47238 48.912 4.12533 49.4082 3.95425C49.611 3.88582 49.7283 3.71718 49.9116 3.63409C50.3296 3.4459 50.7524 3.31881 51.2045 3.50944C51.4049 3.59254 51.5149 3.76606 51.6322 3.93959C52.2065 4.78521 52.407 5.72126 52.2505 6.71596C52.1943 7.08012 52.2994 7.4125 52.2921 7.76199C52.2823 8.16769 52.1846 8.54162 52.0452 8.91311C51.8888 9.32859 51.7935 9.75629 51.8424 10.206C51.8522 10.2989 51.9279 10.3404 51.945 10.4284C52.0061 10.7363 51.9499 11.0174 51.7886 11.2789C51.6738 11.4646 51.6713 11.6675 51.6738 11.8728C51.6738 12.017 51.6738 12.1636 51.6738 12.3078C51.6102 12.5156 51.554 12.7306 51.6078 12.9433C51.7397 13.4589 51.7055 13.9844 51.6469 14.4927C51.598 14.9107 51.5613 15.331 51.5149 15.749C51.4709 16.1327 51.4171 16.5188 51.3878 16.905C51.3707 17.1445 51.3634 17.3938 51.312 17.6284C51.1996 18.1416 51.1385 18.6573 51.1532 19.1852C51.1605 19.4198 51.3267 19.6496 51.1654 19.8891C51.1459 19.916 51.1801 19.9526 51.2045 19.9819C51.3805 20.2068 51.3218 20.4414 51.1923 20.654C50.9039 21.1306 50.8819 21.6659 50.8232 22.1913C50.789 22.5066 50.8086 22.8292 50.8061 23.1469C50.8061 23.2325 50.8232 23.3033 50.8697 23.3864C51.0408 23.6773 51.1336 24.0072 51.0481 24.3323C50.9894 24.5571 50.9943 24.7722 50.9919 24.9921C50.987 25.3514 51.0163 25.7082 51.0481 26.0675C51.0945 26.5783 51.0725 27.0964 51.0652 27.6121C51.0603 27.8663 51.0505 28.1327 50.7597 28.2597C50.7401 28.2695 50.7206 28.3062 50.7206 28.3306C50.7133 28.5824 50.6644 28.8439 50.7621 29.0834C50.8208 29.2227 50.8257 29.3644 50.7817 29.4817C50.7255 29.6308 50.7206 29.7775 50.7157 29.9265C50.7084 30.2394 50.7157 30.5498 50.7035 30.8626C50.6937 31.0508 50.7353 31.2096 50.8477 31.3612C50.9137 31.4492 50.9699 31.5543 50.9748 31.6691C50.9943 32.0919 50.9748 32.5172 51.0481 32.94C51.0994 33.243 51.0603 33.5632 51.0725 33.8736C51.0799 34.0887 50.9797 34.2378 50.8086 34.3477C50.6668 34.4382 50.5666 34.8243 50.6448 34.9758C50.6571 34.9978 50.6839 35.0125 50.7084 35.0272C50.9992 35.186 51.1972 35.428 51.334 35.7237C51.2974 35.9217 51.4245 36.0952 51.4074 36.2932C51.3903 36.5131 51.3072 36.7257 51.3267 36.953C51.3365 37.063 51.3438 37.1388 51.4562 37.217C51.6591 37.3612 51.752 37.6007 51.8497 37.8255C52.0159 38.2068 51.9377 38.6052 51.9328 38.9962C51.9328 39.0964 51.9255 39.1991 51.9255 39.2993C51.9255 39.4068 51.9328 39.4459 52.0819 39.4092C52.3263 39.3506 52.5389 39.4972 52.6978 39.6707C52.8469 39.8321 52.8713 40.0569 52.7833 40.2549C52.7198 40.3991 52.6636 40.5799 52.4118 40.6459C52.6098 40.6948 52.7491 40.7241 52.8884 40.7657C53.0888 40.8268 53.2404 40.9343 53.2477 41.1714C53.2526 41.2862 53.321 41.3791 53.3674 41.4817C53.4114 41.5746 53.5092 41.6455 53.5043 41.7555C53.4774 42.2296 53.8318 42.3934 54.1715 42.5473C54.3793 42.6426 54.6114 42.6891 54.8338 42.76C54.9854 42.8088 55.0856 42.8919 55.1687 43.0141C55.2298 43.107 55.3177 43.1437 55.4277 43.1046C55.7821 42.9824 56.2465 43.151 56.464 43.476C56.6131 43.696 56.5862 43.9355 56.5275 44.1701C56.4395 44.5221 56.3222 44.8765 56.398 45.2406C56.4493 45.4874 56.5055 45.7318 56.4713 45.9811C56.3638 46.7925 55.8505 47.4866 55.088 47.7433C54.8118 47.8361 54.5259 47.8826 54.2497 47.9754C54.1471 48.0097 54.0102 48.0097 53.9051 47.9754C53.4383 47.8239 52.9569 47.8312 52.4754 47.8092C52.2554 47.7995 52.033 47.7555 51.8228 47.6504C51.532 47.5037 51.4025 47.2398 51.3414 46.9612C51.2656 46.6092 51.1116 46.3453 50.789 46.1864C50.398 45.9934 50.2538 45.6659 50.2831 45.2504C50.2929 45.1037 50.2538 45.0084 50.1365 44.8984C49.7259 44.5172 49.4839 44.0504 49.3935 43.4785C49.3349 43.1094 49.1711 42.7526 49.0147 42.4031C48.8338 41.9974 48.6432 41.5917 48.5063 41.1714C48.3744 40.7583 48.3035 40.3233 48.2888 39.8907C48.2742 39.4386 48.0982 39.0353 47.976 38.6174C47.9296 38.4634 47.8929 38.3046 47.8538 38.1506C47.7487 37.7327 47.7267 37.3001 47.7511 36.8675C47.7609 36.6793 47.7536 36.4911 47.7511 36.3029C47.7463 36.0414 47.5801 35.8703 47.4065 35.7041C47.4065 35.6822 47.4114 35.6577 47.4041 35.6406C47.2746 35.3669 47.2868 35.0907 47.3772 34.8096C47.387 34.7779 47.387 34.7314 47.3699 34.707C47.1255 34.3795 47.0546 33.9958 46.9495 33.6121C46.8078 33.0915 46.7467 32.5538 46.7296 32.0308C46.6929 30.8235 46.6342 29.6162 46.6269 28.4088C46.6269 28.2573 46.6196 28.1033 46.6196 27.9518C46.6196 27.7343 46.5365 27.5314 46.5023 27.3213C46.4632 27.0646 46.3678 26.8153 46.3556 26.5514C46.3361 26.1188 46.341 25.6887 46.4412 25.2634C46.4827 25.0899 46.3434 24.9579 46.3507 24.7844C46.3654 24.4447 46.3459 24.1025 46.3581 23.7628C46.3678 23.4769 46.3556 23.1909 46.4192 22.9025C46.4729 22.6606 46.4289 22.3966 46.4289 22.14C46.3165 22.4113 46.1283 22.6312 46.0746 22.9245C46.0281 23.1738 45.9499 23.4255 45.8497 23.6699C45.73 23.9608 45.6224 24.2589 45.5613 24.5742C45.4953 24.9188 45.422 25.2732 45.2852 25.5934C45.0652 26.109 45.0163 26.6589 44.877 27.1893C44.8086 27.4483 44.745 27.7099 44.6644 27.964C44.5373 28.3648 44.3882 28.7608 44.2709 29.164C44.1634 29.5282 44.0681 29.8997 43.9752 30.2687C43.875 30.6695 43.9263 31.0386 44.0314 31.4052C44.1316 31.7571 44.1365 32.0895 43.9336 32.3852C43.6599 32.7811 43.3569 33.138 42.8192 33.2186C42.5503 33.2577 42.2839 33.4068 42.0444 33.551C41.7438 33.7318 41.409 33.7807 41.0888 33.8858C40.9251 33.9396 40.8151 34.0154 40.7711 34.2084C40.6514 34.7388 40.3385 35.1567 39.901 35.4671C39.5516 35.7139 39.119 35.6895 38.7597 35.3913C38.3662 35.0638 38.1585 34.6092 37.9581 34.162C37.7332 33.661 37.6575 33.1111 37.5768 32.5734C37.5035 32.087 37.4742 31.5934 37.396 31.1046C37.3544 30.8357 37.3495 30.562 37.3251 30.2931C37.2884 29.8777 37.2102 29.4671 37.2078 29.0467C37.2053 27.8565 37.2371 26.6687 37.0587 25.4834C36.9903 25.0361 37.0391 24.5718 37.0342 24.1147C37.0342 23.9705 37.11 23.8606 37.2029 23.7628C37.374 23.5819 37.4082 23.4989 37.3837 23.23C37.3666 23.0247 37.264 22.8316 37.2469 22.6337C37.2273 22.3868 37.0709 22.1644 37.1784 21.8858C37.2542 21.6903 37.3495 21.4581 37.2738 21.2382C37.2175 21.0817 37.2102 20.9278 37.2151 20.7714C37.22 20.6394 37.1711 20.5514 37.066 20.4879C36.9487 20.4145 36.8778 20.2997 36.8681 20.175C36.8412 19.8304 36.741 19.4956 36.7727 19.1461C36.7776 19.0923 36.807 19.0141 36.7165 18.9799C36.6432 19.2561 36.5723 19.5274 36.4428 19.7791C36.4061 19.85 36.4159 19.9404 36.455 20.0113C36.5674 20.2166 36.5552 20.4439 36.499 20.6443C36.3915 21.0426 36.3108 21.4435 36.2399 21.8467C36.2155 21.9885 36.1886 22.1424 36.1324 22.2769C36.0298 22.5188 35.9907 22.7779 35.9149 23.0247C35.8245 23.3131 35.8758 23.6626 35.5092 23.8068C35.4896 23.8141 35.475 23.8581 35.4774 23.8801C35.5043 24.1147 35.3577 24.3249 35.3821 24.5595C35.3919 24.6646 35.365 24.7648 35.3137 24.8675C35.2599 24.9726 35.1744 25.0777 35.2232 25.2243C35.3723 25.674 35.3259 26.1457 35.2697 26.5954C35.2086 27.0793 35.189 27.5657 35.1524 28.0496C35.1401 28.2158 35.2379 28.4088 35.189 28.5775C35.1279 28.7852 35.1475 28.9905 35.1353 29.1982C35.1206 29.4426 35.1279 29.6919 35.0962 29.9363C35.0668 30.1661 34.9642 30.3909 34.9568 30.6206C34.9471 30.9652 34.8542 31.283 34.7589 31.6031C34.7076 31.7718 34.6196 31.9428 34.6171 32.1115C34.6025 33.309 34.6049 34.5042 34.6 35.7017L34.5951 35.709ZM52.5243 39.6536C52.4852 39.6463 52.4461 39.6341 52.4045 39.6292C52.341 39.6194 52.2603 39.551 52.2237 39.6536C52.1968 39.7343 52.1772 39.854 52.2334 39.898C52.3019 39.9518 52.3825 39.8614 52.4387 39.8027C52.4754 39.7661 52.5292 39.7318 52.5243 39.6536Z" fill="#B3DA00"/>
<path d="M107.888 35.6969C107.607 36.2786 107.341 36.8676 107.042 37.442C106.713 38.0798 106.409 38.7299 106.033 39.3434C105.723 39.8468 105.41 40.3479 105.119 40.8611C104.728 41.5454 104.361 42.2444 104.022 42.958C103.86 43.2929 103.682 43.6253 103.401 43.8721C102.939 44.2778 102.289 44.4244 101.671 44.0285C101.138 43.6864 100.747 43.1902 100.324 42.7356C99.8303 42.2077 99.361 41.6554 98.97 41.042C98.7085 40.6314 98.4445 40.2281 98.3443 39.7344C98.3052 39.5389 98.2172 39.3336 98.2123 39.1405C98.2001 38.642 98.3052 38.2851 98.8893 38.0969C99.2046 37.9967 99.3757 37.7768 99.5883 37.5764C100.026 37.1658 100.29 36.6281 100.627 36.1466C100.722 36.0098 100.898 35.9169 100.906 35.7214C100.935 35.7214 100.957 35.7141 100.979 35.6872C101.287 35.2937 101.59 34.8953 101.903 34.5067C102.418 33.8688 102.78 33.1405 103.157 32.4196C103.604 31.5617 104.039 30.699 104.533 29.8656C104.826 29.3719 105.153 28.8953 105.356 28.3479C105.561 27.7955 105.803 27.2603 106.036 26.7177C106.163 26.422 106.163 26.1263 106.036 25.833C105.891 25.4933 105.725 25.1585 105.759 24.7723C105.762 24.7405 105.752 24.7014 105.735 24.6721C105.398 24.0953 105.078 23.5136 104.858 22.8807C104.755 22.5825 104.645 22.2843 104.554 21.9837C104.476 21.7271 104.44 21.4558 104.357 21.2016C104.198 20.7275 103.968 20.2851 103.912 19.7719C103.882 19.5177 103.941 19.3418 104.085 19.1633C104.141 19.0925 104.239 19.0411 104.227 18.9141C104.166 18.9141 104.107 18.9067 104.051 18.9141C103.709 18.9605 103.494 18.809 103.374 18.4961C103.235 18.1295 103.095 17.7605 102.941 17.4012C102.7 16.8318 102.499 16.2501 102.286 15.6709C102.118 15.2114 101.952 14.7495 101.793 14.2851C101.658 13.8917 101.546 13.4908 101.409 13.0998C101.316 12.8358 101.282 12.5499 101.145 12.3006C101.079 12.0293 101.013 11.7556 100.945 11.4843C100.871 11.1984 100.788 10.9124 100.717 10.624C100.644 10.3259 100.568 10.0277 100.48 9.73198C100.39 9.42403 100.287 9.11854 100.202 8.80815C100.116 8.49776 99.9622 8.21426 99.8962 7.89654C99.8205 7.53238 99.8009 7.18534 99.9109 6.82363C100.033 6.42281 100.273 6.13442 100.629 5.92179C100.835 5.79959 101.062 5.75316 101.284 5.68717C101.803 5.53075 102.338 5.43299 102.873 5.36701C103.376 5.30591 103.89 5.27414 104.403 5.39633C104.713 5.46965 105.014 5.55031 105.307 5.67739C105.838 5.90957 106.097 6.54257 105.874 7.0778C105.806 7.24155 105.791 7.40285 105.825 7.59837C105.874 7.89165 105.904 8.19471 105.945 8.49043C105.992 8.81792 106.072 9.14053 106.172 9.45581C106.224 9.61955 106.243 9.79308 106.265 9.95682C106.3 10.211 106.351 10.4652 106.392 10.7169C106.463 11.1348 106.488 11.565 106.627 11.9707C106.664 12.0807 106.585 12.2248 106.725 12.3031C106.705 12.4375 106.769 12.5499 106.805 12.6721C106.937 13.1096 107.035 13.5593 107.187 13.9894C107.353 14.4611 107.46 14.9499 107.612 15.424C107.673 15.6147 107.656 15.8077 107.712 15.991C107.842 16.4285 107.981 16.8635 108.123 17.2961C108.252 17.6945 108.404 18.088 108.526 18.4888C108.648 18.8921 108.897 19.2929 108.572 19.7181C108.521 19.7841 108.68 20.1214 108.758 20.1141C108.893 20.1018 108.883 19.9747 108.912 19.8745C109.012 19.5275 109.161 19.2147 109.538 19.0802C109.618 19.0509 109.67 18.9923 109.699 18.8994C109.777 18.6599 109.873 18.4277 109.995 18.2053C110.361 17.5308 110.608 16.822 110.567 16.0399C110.562 15.947 110.564 15.8517 110.567 15.7564C110.574 15.5731 110.66 15.4338 110.816 15.3409C110.921 15.2774 110.994 15.2016 110.997 15.0745C110.997 15.0012 111.026 14.945 111.063 14.8766C111.222 14.5882 111.464 14.3438 111.554 14.0212C111.608 13.833 111.84 13.6326 111.588 13.4297C111.334 13.2269 111.393 12.9483 111.456 12.7161C111.51 12.5206 111.686 12.3568 111.94 12.3739C111.992 12.3764 112.045 12.3739 112.048 12.3006C112.194 12.2517 112.16 12.0953 112.197 11.9976C112.427 11.3768 112.603 10.7365 112.84 10.1206C113.074 9.51202 113.238 8.87902 113.524 8.29002C113.678 7.97475 113.935 7.72302 114.067 7.39552C114.208 7.04114 114.348 6.68676 114.48 6.32994C114.663 5.83625 114.836 5.34012 115.396 5.1275C115.511 5.0835 115.548 4.93686 115.606 4.82933C115.792 4.48228 116.132 4.28432 116.547 4.61915C116.806 4.82688 117.029 5.07862 117.319 5.25214C117.403 5.30102 117.473 5.34012 117.569 5.33524C118.102 5.30835 118.505 5.52587 118.764 5.99023C118.857 6.15642 119.03 6.11976 119.162 6.1833C119.38 6.28595 119.512 6.43503 119.531 6.66965C119.563 7.05825 119.465 7.42974 119.387 7.80856C119.333 8.07984 119.267 8.34379 119.189 8.60774C119.091 8.93524 119.003 9.26517 118.891 9.59023C118.766 9.94949 118.625 10.3039 118.488 10.6582C118.326 11.0713 118.15 11.477 118.001 11.8949C117.955 12.0244 117.864 12.1442 117.879 12.2933C117.737 12.4179 117.74 12.6061 117.671 12.7625C117.447 13.2978 117.231 13.8379 117.012 14.378C116.787 14.9303 116.559 15.4802 116.342 16.0326C116.181 16.4432 116.014 16.8538 115.885 17.2766C115.792 17.5796 115.692 17.8631 115.452 18.0807C115.386 18.1393 115.332 18.2053 115.345 18.3031C115.374 18.5377 115.274 18.7552 115.245 18.98C115.225 19.1242 115.181 19.2807 115.132 19.4297C115.017 19.7768 114.873 20.1116 114.743 20.4513C114.607 20.8106 114.487 21.1772 114.328 21.5291C114.132 21.9642 113.957 22.4065 113.776 22.8489C113.614 23.2448 113.482 23.6578 113.145 23.9511C113.116 23.9756 113.096 23.9976 113.086 24.0342C112.947 24.4986 112.82 24.9678 112.664 25.4273C112.497 25.9063 112.322 26.3804 112.089 26.8277C111.987 27.0257 111.987 27.1674 112.082 27.3605C112.224 27.6538 112.429 27.9397 112.385 28.2941C112.363 28.475 112.431 28.6094 112.529 28.7438C112.571 28.8 112.612 28.8587 112.644 28.9198C112.845 29.2986 112.952 29.7189 113.174 30.0855C113.419 30.4888 113.578 30.9141 113.517 31.3955C113.512 31.442 113.517 31.4908 113.548 31.5373C113.971 32.2069 114.389 32.879 114.812 33.5511C115.108 34.0204 115.394 34.4945 115.706 34.954C115.878 35.2057 116.002 35.4892 116.217 35.7116C116.3 35.9389 116.464 36.1173 116.579 36.3251C116.594 36.3544 116.635 36.3862 116.664 36.3862C116.95 36.3862 117.08 36.5817 117.134 36.809C117.192 37.0534 117.478 37.1658 117.491 37.3857C117.51 37.7401 117.806 37.8917 117.948 38.1507C118.124 38.4733 118.441 38.4978 118.737 38.5809C119.04 38.6664 119.348 38.6737 119.658 38.6713C119.766 38.6713 119.873 38.7251 119.925 38.7862C120.067 38.9548 120.201 38.9132 120.335 38.8106C120.77 38.4831 121.372 38.7935 121.562 39.1185C121.662 39.2896 121.736 39.4876 121.653 39.7222C121.574 39.9373 121.611 40.1743 121.658 40.4041C121.721 40.7145 121.902 40.9882 121.953 41.2912C122.027 41.7238 122.014 42.1637 121.858 42.589C121.77 42.8261 121.684 43.0607 121.56 43.2855C121.389 43.5935 121.11 43.7352 120.827 43.8794C120.421 44.0896 120.005 44.2802 119.587 44.4635C119.446 44.5246 119.287 44.5564 119.133 44.5735C118.903 44.6004 118.671 44.5931 118.439 44.6102C118.089 44.6346 117.838 44.4293 117.613 44.1874C117.503 44.0676 117.4 43.9625 117.209 43.9747C116.823 43.9992 116.586 43.7548 116.396 43.4591C116.288 43.2929 116.21 43.1071 116.061 42.9654C115.941 42.853 115.826 42.7674 115.645 42.7479C115.347 42.7136 114.941 42.4399 114.9 42.0073C114.878 41.7898 114.797 41.6236 114.565 41.5088C114.062 41.257 113.763 40.8049 113.529 40.3063C113.258 39.7222 112.871 39.209 112.502 38.6884C112.226 38.3022 112.026 37.8819 111.808 37.464C111.495 36.8627 111.139 36.2811 110.801 35.6921C110.317 34.8807 109.834 34.0692 109.352 33.2578C109.296 33.165 109.279 33.0061 109.152 33.0183C109.037 33.0306 109.029 33.1894 108.99 33.2872C108.653 34.101 108.277 34.8978 107.888 35.6872V35.6969Z" fill="#B3DA00"/>
<path d="M53.6682 12.2983C53.7073 11.8901 53.7439 11.482 53.783 11.0738C53.8319 10.585 53.8515 10.0889 53.9468 9.60498C54.0568 9.04531 54.1276 8.48319 54.2156 7.92107C54.3232 7.22942 54.4111 6.53777 54.4796 5.84124C54.5333 5.29134 54.7142 4.77321 55.2348 4.44572C55.594 4.21843 55.9753 4.22576 56.3468 4.32107C56.9456 4.47504 57.5126 4.73411 58.0747 4.99073C58.8568 5.34511 59.5533 5.81435 60.0665 6.528C60.2498 6.78217 60.4454 7.02168 60.4698 7.35162C60.4942 7.66201 60.3843 7.92352 60.1521 8.11659C59.915 8.31456 59.8564 8.59317 59.7757 8.85957C59.6828 9.16751 59.5997 9.48278 59.5289 9.79562C59.4873 9.98136 59.4824 10.1744 59.4384 10.3626C59.3285 10.8441 59.2209 11.3231 59.0987 11.8021C59.0572 11.9634 58.9814 12.1247 58.9936 12.2983C58.8885 12.4351 58.9325 12.6062 58.8861 12.7528C58.7297 13.2465 58.7175 13.7647 58.6588 14.2706C58.6124 14.6763 58.5537 15.082 58.5293 15.4926C58.5171 15.7076 58.5073 15.9374 58.4486 16.15C58.346 16.5337 58.302 16.9296 58.2213 17.3182C58.1285 17.7704 58.0967 18.2372 58.0503 18.6991C58.0038 19.1341 57.9158 19.5667 57.9378 20.0091C57.9549 20.3194 57.8498 20.5932 57.5932 20.7985C57.4759 20.8938 57.4613 21.3068 57.5712 21.407C57.7692 21.5903 57.823 21.8274 57.845 22.0767C57.9036 22.7268 57.6568 23.35 57.6665 23.9977C57.6665 24.0123 57.6592 24.0245 57.6568 24.0392C57.5443 24.4351 57.6177 24.8506 57.5223 25.2514C57.5004 25.3443 57.6079 25.4323 57.5786 25.5423C57.5077 25.7989 57.4832 26.075 57.3048 26.2901C57.2706 26.3317 57.2413 26.361 57.2413 26.4196C57.2462 26.7716 57.2364 27.1211 57.1753 27.473C57.1338 27.7174 57.1949 27.9691 57.2217 28.2209C57.2535 28.4897 57.3244 28.7341 57.4344 28.9712C57.5419 29.2058 57.5615 29.4233 57.3855 29.6237C57.3268 29.6922 57.3415 29.7557 57.3415 29.8241C57.3415 30.0123 57.3733 30.2103 57.2999 30.3838C57.1997 30.6258 57.2657 30.8677 57.2437 31.1097C57.2388 31.1585 57.2682 31.1805 57.3171 31.2001C57.7667 31.3932 57.801 31.8355 57.449 32.1777C57.3586 32.2657 57.3195 32.3488 57.3244 32.4759C57.3366 32.7814 57.3415 33.0844 57.3342 33.3899C57.3171 34.172 57.4441 34.9467 57.4221 35.7264C57.1973 36.5036 57.2608 37.3052 57.2169 38.097C57.1997 38.4123 57.1802 38.7594 56.9089 39.0135C56.8258 39.0893 56.8111 39.2091 56.8038 39.3313C56.7696 39.8714 56.3712 40.0107 55.9362 39.8616C55.7334 39.7932 55.5354 39.7223 55.313 39.7296C55.137 39.737 55.0441 39.8836 54.8853 39.93C54.5676 40.0205 54.3012 39.9154 54.0372 39.7858C53.9663 39.7492 53.9101 39.7272 53.8441 39.7492C53.4653 39.8714 53.1525 39.6416 53.0523 39.2555C52.9423 38.8425 52.9032 38.4196 52.825 38.0042C52.7712 37.7084 52.7981 37.3981 52.7932 37.0926C52.7859 36.6355 52.7835 36.181 52.7786 35.7239C52.7835 35.6946 52.7908 35.6677 52.7908 35.6384C52.8054 34.1256 52.7786 32.6152 52.8714 31.1023C52.8934 30.7553 52.913 30.4009 52.8201 30.049C52.7761 29.8803 52.8006 29.6873 52.8519 29.4991C52.9081 29.2864 53.0401 29.0738 52.957 28.8343C52.8568 28.5435 52.8226 28.238 52.8079 27.9325C52.7468 26.774 52.8983 25.6205 52.8837 24.4645C52.8837 24.4205 52.8837 24.3765 52.8861 24.3349C52.891 24.264 52.913 24.1981 52.9301 24.1296C52.979 23.9488 53.1134 23.7728 53.0254 23.5773C52.9839 23.4844 52.979 23.3964 52.9765 23.306C52.9716 22.849 52.9863 22.3919 52.9643 21.9349C52.9472 21.5268 53.0083 21.1284 53.0767 20.7349C53.15 20.3048 53.238 19.882 53.2331 19.4421C53.2307 19.1512 53.2307 18.8628 53.2967 18.5647C53.3749 18.2225 53.5264 17.9977 53.849 17.8877C53.9248 17.8608 53.9883 17.8144 53.9835 17.7459C53.981 17.6922 53.9199 17.6482 53.8515 17.6213C53.4995 17.4966 53.3944 17.3036 53.3944 16.9247C53.3944 16.304 53.5044 15.6881 53.4947 15.0673C53.4898 14.7545 53.5338 14.4343 53.5484 14.1239C53.5777 13.5203 53.6755 12.919 53.6608 12.3129L53.6682 12.2983Z" fill="#B3DA00"/>
</g>
<defs>
<clipPath id="clip0_614_96">
<rect width="122.004" height="48" fill="white" transform="translate(-0.00195312)"/>
</clipPath>
</defs>
</svg>
