<svg width="224" height="37" viewBox="0 0 224 37" fill="none" xmlns="http://www.w3.org/2000/svg">
<mask id="path-1-outside-1_577_4419" maskUnits="userSpaceOnUse" x="-3" y="-3" width="230" height="43" fill="black">
<rect fill="white" x="-3" y="-3" width="230" height="43"/>
<path d="M10.1816 35.9512L1.22168 36C1.05892 36 0.977539 35.9186 0.977539 35.7559L1.0752 1.40527C1.0752 1.27507 1.1403 1.20996 1.27051 1.20996L10.6211 1.16113C12.4766 1.1123 14.153 1.53548 15.6504 2.43066C17.1641 3.32585 18.3685 4.53841 19.2637 6.06836C20.1751 7.58203 20.6309 9.25846 20.6309 11.0977V25.4531C20.6309 27.3737 20.167 29.1315 19.2393 30.7266C18.2952 32.3053 17.042 33.5667 15.4795 34.5107C13.917 35.4385 12.151 35.9186 10.1816 35.9512ZM10.6211 7.14258L7.12988 7.19141L7.08105 29.8477H10.1816C11.4186 29.8477 12.4603 29.4163 13.3066 28.5537C14.153 27.6911 14.5762 26.6576 14.5762 25.4531V11.0488C14.5762 9.99089 14.1855 9.07129 13.4043 8.29004C12.623 7.49251 11.6953 7.11003 10.6211 7.14258ZM30.4209 36H24.7568C24.6266 36 24.5615 35.9186 24.5615 35.7559L24.6592 1.40527C24.6592 1.27507 24.7243 1.20996 24.8545 1.20996H34.9619C36.7686 1.20996 38.4287 1.64941 39.9424 2.52832C41.4561 3.40723 42.6605 4.58724 43.5557 6.06836C44.4671 7.54948 44.9229 9.22591 44.9229 11.0977C44.9229 12.3184 44.7357 13.4251 44.3613 14.418C43.987 15.4108 43.5475 16.249 43.043 16.9326C42.5547 17.6162 42.1071 18.1208 41.7002 18.4463C43.5068 20.4482 44.4102 22.8001 44.4102 25.502L44.459 35.7559C44.459 35.9186 44.3776 36 44.2148 36H38.5508C38.4206 36 38.3555 35.9512 38.3555 35.8535V25.502C38.3555 24.2975 37.9323 23.2559 37.0859 22.377C36.2396 21.498 35.1979 21.0586 33.9609 21.0586H30.665L30.6162 35.7559C30.6162 35.9186 30.5511 36 30.4209 36ZM34.9619 7.19141H30.665V15.0527H34.9619C35.9873 15.0527 36.8988 14.6702 37.6963 13.9053C38.5101 13.1403 38.917 12.2044 38.917 11.0977C38.917 10.0397 38.5264 9.12826 37.7451 8.36328C36.9639 7.58203 36.0361 7.19141 34.9619 7.19141ZM65.04 36H48.8779C48.7477 36 48.6826 35.9186 48.6826 35.7559L48.7314 1.40527C48.7314 1.27507 48.7965 1.20996 48.9268 1.20996H64.9912C65.1214 1.20996 65.1865 1.29134 65.1865 1.4541V7.04492C65.1865 7.17513 65.1214 7.24023 64.9912 7.24023H54.7373V15.0527H64.9912C65.1214 15.0527 65.1865 15.1178 65.1865 15.248L65.2354 20.9121C65.2354 21.0423 65.1702 21.1074 65.04 21.1074H54.7373V29.8477H65.04C65.1702 29.8477 65.2354 29.929 65.2354 30.0918V35.8047C65.2354 35.9349 65.1702 36 65.04 36ZM67.9941 35.7559L74.1953 1.40527C74.2279 1.27507 74.3092 1.20996 74.4395 1.20996H81.6904C81.8206 1.20996 81.902 1.27507 81.9346 1.40527L87.8916 35.7559C87.9079 35.9186 87.8428 36 87.6963 36H82.1543C81.9915 36 81.902 35.9186 81.8857 35.7559L81.3486 32.0938H74.5371L74 35.7559C73.9837 35.9186 73.9023 36 73.7559 36H68.1895C68.0592 36 67.9941 35.9186 67.9941 35.7559ZM77.7842 12.709L75.5381 26.7471H80.3477L78.2969 12.709L78.0039 10.8535L77.7842 12.709ZM96.876 36H91.2119C91.0817 36 91.0166 35.9186 91.0166 35.7559L91.1143 1.40527C91.1143 1.27507 91.1794 1.20996 91.3096 1.20996H97.4131C97.5433 1.20996 97.6572 1.27507 97.7549 1.40527L102.32 7.99707L106.861 1.40527C106.959 1.27507 107.081 1.20996 107.228 1.20996H113.355C113.502 1.20996 113.575 1.27507 113.575 1.40527L113.673 35.7559C113.673 35.9186 113.608 36 113.478 36H107.813C107.683 36 107.618 35.9186 107.618 35.7559L107.569 10.2432L102.32 17.8604L97.1201 10.2432L97.0713 35.7559C97.0713 35.9186 97.0062 36 96.876 36ZM126.368 36.4883C124.594 36.4883 122.958 36.0326 121.461 35.1211C119.98 34.2096 118.792 32.9971 117.896 31.4834C117.018 29.9535 116.578 28.277 116.578 26.4541V24.1592C116.578 23.9801 116.66 23.8906 116.822 23.8906H122.438C122.568 23.8906 122.633 23.9801 122.633 24.1592V26.4541C122.633 27.5446 122.999 28.4886 123.731 29.2861C124.464 30.0674 125.343 30.458 126.368 30.458C127.41 30.458 128.297 30.0592 129.029 29.2617C129.762 28.4479 130.128 27.512 130.128 26.4541C130.128 25.2334 129.33 24.1673 127.735 23.2559C127.475 23.0931 127.133 22.8978 126.71 22.6699C126.303 22.4258 125.815 22.1491 125.245 21.8398C124.675 21.5306 124.122 21.2295 123.585 20.9365C123.048 20.6273 122.527 20.3343 122.022 20.0576C120.2 18.9834 118.84 17.6406 117.945 16.0293C117.066 14.4017 116.627 12.5788 116.627 10.5605C116.627 8.70508 117.083 7.02865 117.994 5.53125C118.906 4.05013 120.094 2.87826 121.559 2.01562C123.04 1.13672 124.643 0.697266 126.368 0.697266C128.142 0.697266 129.77 1.13672 131.251 2.01562C132.732 2.91081 133.912 4.09896 134.791 5.58008C135.686 7.0612 136.134 8.72135 136.134 10.5605V14.6621C136.134 14.7923 136.069 14.8574 135.938 14.8574H130.323C130.193 14.8574 130.128 14.7923 130.128 14.6621L130.079 10.5605C130.079 9.38867 129.713 8.43652 128.98 7.7041C128.248 6.97168 127.377 6.60547 126.368 6.60547C125.343 6.60547 124.464 6.99609 123.731 7.77734C122.999 8.55859 122.633 9.48633 122.633 10.5605C122.633 11.651 122.861 12.5625 123.316 13.2949C123.788 14.0273 124.643 14.7272 125.88 15.3945C126.01 15.4596 126.311 15.6224 126.783 15.8828C127.255 16.1432 127.776 16.4362 128.346 16.7617C128.932 17.071 129.461 17.3558 129.933 17.6162C130.405 17.8604 130.689 18.0068 130.787 18.0557C132.447 18.9834 133.757 20.1227 134.718 21.4736C135.694 22.8245 136.183 24.4847 136.183 26.4541C136.183 28.3584 135.743 30.0674 134.864 31.5811C133.969 33.0947 132.781 34.291 131.3 35.1699C129.819 36.0488 128.175 36.4883 126.368 36.4883ZM148.854 36.4883C147.047 36.4883 145.395 36.0326 143.897 35.1211C142.416 34.2096 141.236 32.9889 140.357 31.459C139.495 29.9128 139.063 28.1956 139.063 26.3076L139.112 10.707C139.112 8.85156 139.535 7.17513 140.382 5.67773C141.228 4.16406 142.392 2.9515 143.873 2.04004C145.37 1.1123 147.031 0.648438 148.854 0.648438C150.709 0.648438 152.361 1.09603 153.81 1.99121C155.274 2.88639 156.438 4.09896 157.301 5.62891C158.18 7.14258 158.619 8.83529 158.619 10.707V13.002C158.619 13.1322 158.554 13.1973 158.424 13.1973H152.809C152.678 13.1973 152.613 13.1322 152.613 13.002V10.707C152.613 9.60026 152.255 8.64811 151.539 7.85059C150.823 7.05306 149.928 6.6543 148.854 6.6543C147.665 6.6543 146.754 7.0612 146.119 7.875C145.484 8.6888 145.167 9.63281 145.167 10.707V26.3076C145.167 27.5283 145.525 28.5293 146.241 29.3105C146.957 30.0755 147.828 30.458 148.854 30.458C149.928 30.458 150.823 30.0348 151.539 29.1885C152.255 28.3258 152.613 27.3656 152.613 26.3076V23.9883C152.613 23.8581 152.678 23.793 152.809 23.793H158.473C158.603 23.793 158.668 23.8581 158.668 23.9883V26.3076C158.668 28.1794 158.229 29.8883 157.35 31.4346C156.454 32.9645 155.274 34.1934 153.81 35.1211C152.345 36.0326 150.693 36.4883 148.854 36.4883ZM160.621 35.7559L166.822 1.40527C166.855 1.27507 166.936 1.20996 167.066 1.20996H174.317C174.448 1.20996 174.529 1.27507 174.562 1.40527L180.519 35.7559C180.535 35.9186 180.47 36 180.323 36H174.781C174.618 36 174.529 35.9186 174.513 35.7559L173.976 32.0938H167.164L166.627 35.7559C166.611 35.9186 166.529 36 166.383 36H160.816C160.686 36 160.621 35.9186 160.621 35.7559ZM170.411 12.709L168.165 26.7471H172.975L170.924 12.709L170.631 10.8535L170.411 12.709ZM189.503 36H183.888C183.725 36 183.644 35.9186 183.644 35.7559L183.741 1.40527C183.741 1.27507 183.806 1.20996 183.937 1.20996H193.556C196.616 1.20996 199.033 2.14583 200.807 4.01758C202.597 5.87305 203.492 8.40397 203.492 11.6104C203.492 13.9541 203.028 15.9967 202.101 17.7383C201.157 19.4635 199.936 20.7982 198.438 21.7422C196.941 22.6862 195.313 23.1582 193.556 23.1582H189.747V35.7559C189.747 35.9186 189.666 36 189.503 36ZM193.556 7.14258L189.747 7.19141V17.1035H193.556C194.614 17.1035 195.533 16.599 196.314 15.5898C197.096 14.5645 197.486 13.238 197.486 11.6104C197.486 10.3083 197.136 9.24219 196.437 8.41211C195.737 7.56576 194.776 7.14258 193.556 7.14258ZM223.243 36H207.081C206.951 36 206.886 35.9186 206.886 35.7559L206.935 1.40527C206.935 1.27507 207 1.20996 207.13 1.20996H223.194C223.325 1.20996 223.39 1.29134 223.39 1.4541V7.04492C223.39 7.17513 223.325 7.24023 223.194 7.24023H212.94V15.0527H223.194C223.325 15.0527 223.39 15.1178 223.39 15.248L223.438 20.9121C223.438 21.0423 223.373 21.1074 223.243 21.1074H212.94V29.8477H223.243C223.373 29.8477 223.438 29.929 223.438 30.0918V35.8047C223.438 35.9349 223.373 36 223.243 36Z"/>
</mask>
<path d="M10.1816 35.9512L1.22168 36C1.05892 36 0.977539 35.9186 0.977539 35.7559L1.0752 1.40527C1.0752 1.27507 1.1403 1.20996 1.27051 1.20996L10.6211 1.16113C12.4766 1.1123 14.153 1.53548 15.6504 2.43066C17.1641 3.32585 18.3685 4.53841 19.2637 6.06836C20.1751 7.58203 20.6309 9.25846 20.6309 11.0977V25.4531C20.6309 27.3737 20.167 29.1315 19.2393 30.7266C18.2952 32.3053 17.042 33.5667 15.4795 34.5107C13.917 35.4385 12.151 35.9186 10.1816 35.9512ZM10.6211 7.14258L7.12988 7.19141L7.08105 29.8477H10.1816C11.4186 29.8477 12.4603 29.4163 13.3066 28.5537C14.153 27.6911 14.5762 26.6576 14.5762 25.4531V11.0488C14.5762 9.99089 14.1855 9.07129 13.4043 8.29004C12.623 7.49251 11.6953 7.11003 10.6211 7.14258ZM30.4209 36H24.7568C24.6266 36 24.5615 35.9186 24.5615 35.7559L24.6592 1.40527C24.6592 1.27507 24.7243 1.20996 24.8545 1.20996H34.9619C36.7686 1.20996 38.4287 1.64941 39.9424 2.52832C41.4561 3.40723 42.6605 4.58724 43.5557 6.06836C44.4671 7.54948 44.9229 9.22591 44.9229 11.0977C44.9229 12.3184 44.7357 13.4251 44.3613 14.418C43.987 15.4108 43.5475 16.249 43.043 16.9326C42.5547 17.6162 42.1071 18.1208 41.7002 18.4463C43.5068 20.4482 44.4102 22.8001 44.4102 25.502L44.459 35.7559C44.459 35.9186 44.3776 36 44.2148 36H38.5508C38.4206 36 38.3555 35.9512 38.3555 35.8535V25.502C38.3555 24.2975 37.9323 23.2559 37.0859 22.377C36.2396 21.498 35.1979 21.0586 33.9609 21.0586H30.665L30.6162 35.7559C30.6162 35.9186 30.5511 36 30.4209 36ZM34.9619 7.19141H30.665V15.0527H34.9619C35.9873 15.0527 36.8988 14.6702 37.6963 13.9053C38.5101 13.1403 38.917 12.2044 38.917 11.0977C38.917 10.0397 38.5264 9.12826 37.7451 8.36328C36.9639 7.58203 36.0361 7.19141 34.9619 7.19141ZM65.04 36H48.8779C48.7477 36 48.6826 35.9186 48.6826 35.7559L48.7314 1.40527C48.7314 1.27507 48.7965 1.20996 48.9268 1.20996H64.9912C65.1214 1.20996 65.1865 1.29134 65.1865 1.4541V7.04492C65.1865 7.17513 65.1214 7.24023 64.9912 7.24023H54.7373V15.0527H64.9912C65.1214 15.0527 65.1865 15.1178 65.1865 15.248L65.2354 20.9121C65.2354 21.0423 65.1702 21.1074 65.04 21.1074H54.7373V29.8477H65.04C65.1702 29.8477 65.2354 29.929 65.2354 30.0918V35.8047C65.2354 35.9349 65.1702 36 65.04 36ZM67.9941 35.7559L74.1953 1.40527C74.2279 1.27507 74.3092 1.20996 74.4395 1.20996H81.6904C81.8206 1.20996 81.902 1.27507 81.9346 1.40527L87.8916 35.7559C87.9079 35.9186 87.8428 36 87.6963 36H82.1543C81.9915 36 81.902 35.9186 81.8857 35.7559L81.3486 32.0938H74.5371L74 35.7559C73.9837 35.9186 73.9023 36 73.7559 36H68.1895C68.0592 36 67.9941 35.9186 67.9941 35.7559ZM77.7842 12.709L75.5381 26.7471H80.3477L78.2969 12.709L78.0039 10.8535L77.7842 12.709ZM96.876 36H91.2119C91.0817 36 91.0166 35.9186 91.0166 35.7559L91.1143 1.40527C91.1143 1.27507 91.1794 1.20996 91.3096 1.20996H97.4131C97.5433 1.20996 97.6572 1.27507 97.7549 1.40527L102.32 7.99707L106.861 1.40527C106.959 1.27507 107.081 1.20996 107.228 1.20996H113.355C113.502 1.20996 113.575 1.27507 113.575 1.40527L113.673 35.7559C113.673 35.9186 113.608 36 113.478 36H107.813C107.683 36 107.618 35.9186 107.618 35.7559L107.569 10.2432L102.32 17.8604L97.1201 10.2432L97.0713 35.7559C97.0713 35.9186 97.0062 36 96.876 36ZM126.368 36.4883C124.594 36.4883 122.958 36.0326 121.461 35.1211C119.98 34.2096 118.792 32.9971 117.896 31.4834C117.018 29.9535 116.578 28.277 116.578 26.4541V24.1592C116.578 23.9801 116.66 23.8906 116.822 23.8906H122.438C122.568 23.8906 122.633 23.9801 122.633 24.1592V26.4541C122.633 27.5446 122.999 28.4886 123.731 29.2861C124.464 30.0674 125.343 30.458 126.368 30.458C127.41 30.458 128.297 30.0592 129.029 29.2617C129.762 28.4479 130.128 27.512 130.128 26.4541C130.128 25.2334 129.33 24.1673 127.735 23.2559C127.475 23.0931 127.133 22.8978 126.71 22.6699C126.303 22.4258 125.815 22.1491 125.245 21.8398C124.675 21.5306 124.122 21.2295 123.585 20.9365C123.048 20.6273 122.527 20.3343 122.022 20.0576C120.2 18.9834 118.84 17.6406 117.945 16.0293C117.066 14.4017 116.627 12.5788 116.627 10.5605C116.627 8.70508 117.083 7.02865 117.994 5.53125C118.906 4.05013 120.094 2.87826 121.559 2.01562C123.04 1.13672 124.643 0.697266 126.368 0.697266C128.142 0.697266 129.77 1.13672 131.251 2.01562C132.732 2.91081 133.912 4.09896 134.791 5.58008C135.686 7.0612 136.134 8.72135 136.134 10.5605V14.6621C136.134 14.7923 136.069 14.8574 135.938 14.8574H130.323C130.193 14.8574 130.128 14.7923 130.128 14.6621L130.079 10.5605C130.079 9.38867 129.713 8.43652 128.98 7.7041C128.248 6.97168 127.377 6.60547 126.368 6.60547C125.343 6.60547 124.464 6.99609 123.731 7.77734C122.999 8.55859 122.633 9.48633 122.633 10.5605C122.633 11.651 122.861 12.5625 123.316 13.2949C123.788 14.0273 124.643 14.7272 125.88 15.3945C126.01 15.4596 126.311 15.6224 126.783 15.8828C127.255 16.1432 127.776 16.4362 128.346 16.7617C128.932 17.071 129.461 17.3558 129.933 17.6162C130.405 17.8604 130.689 18.0068 130.787 18.0557C132.447 18.9834 133.757 20.1227 134.718 21.4736C135.694 22.8245 136.183 24.4847 136.183 26.4541C136.183 28.3584 135.743 30.0674 134.864 31.5811C133.969 33.0947 132.781 34.291 131.3 35.1699C129.819 36.0488 128.175 36.4883 126.368 36.4883ZM148.854 36.4883C147.047 36.4883 145.395 36.0326 143.897 35.1211C142.416 34.2096 141.236 32.9889 140.357 31.459C139.495 29.9128 139.063 28.1956 139.063 26.3076L139.112 10.707C139.112 8.85156 139.535 7.17513 140.382 5.67773C141.228 4.16406 142.392 2.9515 143.873 2.04004C145.37 1.1123 147.031 0.648438 148.854 0.648438C150.709 0.648438 152.361 1.09603 153.81 1.99121C155.274 2.88639 156.438 4.09896 157.301 5.62891C158.18 7.14258 158.619 8.83529 158.619 10.707V13.002C158.619 13.1322 158.554 13.1973 158.424 13.1973H152.809C152.678 13.1973 152.613 13.1322 152.613 13.002V10.707C152.613 9.60026 152.255 8.64811 151.539 7.85059C150.823 7.05306 149.928 6.6543 148.854 6.6543C147.665 6.6543 146.754 7.0612 146.119 7.875C145.484 8.6888 145.167 9.63281 145.167 10.707V26.3076C145.167 27.5283 145.525 28.5293 146.241 29.3105C146.957 30.0755 147.828 30.458 148.854 30.458C149.928 30.458 150.823 30.0348 151.539 29.1885C152.255 28.3258 152.613 27.3656 152.613 26.3076V23.9883C152.613 23.8581 152.678 23.793 152.809 23.793H158.473C158.603 23.793 158.668 23.8581 158.668 23.9883V26.3076C158.668 28.1794 158.229 29.8883 157.35 31.4346C156.454 32.9645 155.274 34.1934 153.81 35.1211C152.345 36.0326 150.693 36.4883 148.854 36.4883ZM160.621 35.7559L166.822 1.40527C166.855 1.27507 166.936 1.20996 167.066 1.20996H174.317C174.448 1.20996 174.529 1.27507 174.562 1.40527L180.519 35.7559C180.535 35.9186 180.47 36 180.323 36H174.781C174.618 36 174.529 35.9186 174.513 35.7559L173.976 32.0938H167.164L166.627 35.7559C166.611 35.9186 166.529 36 166.383 36H160.816C160.686 36 160.621 35.9186 160.621 35.7559ZM170.411 12.709L168.165 26.7471H172.975L170.924 12.709L170.631 10.8535L170.411 12.709ZM189.503 36H183.888C183.725 36 183.644 35.9186 183.644 35.7559L183.741 1.40527C183.741 1.27507 183.806 1.20996 183.937 1.20996H193.556C196.616 1.20996 199.033 2.14583 200.807 4.01758C202.597 5.87305 203.492 8.40397 203.492 11.6104C203.492 13.9541 203.028 15.9967 202.101 17.7383C201.157 19.4635 199.936 20.7982 198.438 21.7422C196.941 22.6862 195.313 23.1582 193.556 23.1582H189.747V35.7559C189.747 35.9186 189.666 36 189.503 36ZM193.556 7.14258L189.747 7.19141V17.1035H193.556C194.614 17.1035 195.533 16.599 196.314 15.5898C197.096 14.5645 197.486 13.238 197.486 11.6104C197.486 10.3083 197.136 9.24219 196.437 8.41211C195.737 7.56576 194.776 7.14258 193.556 7.14258ZM223.243 36H207.081C206.951 36 206.886 35.9186 206.886 35.7559L206.935 1.40527C206.935 1.27507 207 1.20996 207.13 1.20996H223.194C223.325 1.20996 223.39 1.29134 223.39 1.4541V7.04492C223.39 7.17513 223.325 7.24023 223.194 7.24023H212.94V15.0527H223.194C223.325 15.0527 223.39 15.1178 223.39 15.248L223.438 20.9121C223.438 21.0423 223.373 21.1074 223.243 21.1074H212.94V29.8477H223.243C223.373 29.8477 223.438 29.929 223.438 30.0918V35.8047C223.438 35.9349 223.373 36 223.243 36Z" fill="#FA8900"/>
<path d="M10.1816 35.9512L10.198 38.9511L10.2146 38.951L10.2312 38.9508L10.1816 35.9512ZM1.22168 36V39H1.22985L1.23803 39L1.22168 36ZM0.977539 35.7559L-2.02246 35.7473V35.7559H0.977539ZM1.0752 1.40527L4.0752 1.4138V1.40527H1.0752ZM1.27051 1.20996V4.20996H1.27834L1.28617 4.20992L1.27051 1.20996ZM10.6211 1.16113L10.6368 4.16109L10.6684 4.16093L10.7 4.1601L10.6211 1.16113ZM15.6504 2.43066L14.111 5.00561L14.1171 5.00926L14.1233 5.01289L15.6504 2.43066ZM19.2637 6.06836L16.6743 7.5834L16.6839 7.59972L16.6936 7.61591L19.2637 6.06836ZM19.2393 30.7266L21.8141 32.2661L21.8234 32.2506L21.8325 32.2349L19.2393 30.7266ZM15.4795 34.5107L17.0111 37.0903L17.021 37.0844L17.0308 37.0785L15.4795 34.5107ZM10.6211 7.14258L10.663 10.1423L10.6875 10.1419L10.712 10.1412L10.6211 7.14258ZM7.12988 7.19141L7.08793 4.1917L4.13625 4.23298L4.12989 7.18494L7.12988 7.19141ZM7.08105 29.8477L4.08106 29.8412L4.07458 32.8477H7.08105V29.8477ZM13.3066 28.5537L11.1652 26.4527L13.3066 28.5537ZM13.4043 8.29004L11.2612 10.3894L11.272 10.4004L11.283 10.4114L13.4043 8.29004ZM10.1653 32.9512L1.20533 33L1.23803 39L10.198 38.9511L10.1653 32.9512ZM1.22168 33C1.60273 33 2.43955 33.0973 3.15989 33.8176C3.88024 34.538 3.97754 35.3748 3.97754 35.7559H-2.02246C-2.02246 36.2997 -1.88448 37.2586 -1.08275 38.0603C-0.281017 38.862 0.677865 39 1.22168 39V33ZM3.97753 35.7644L4.07518 1.4138L-1.92479 1.39674L-2.02245 35.7473L3.97753 35.7644ZM4.0752 1.40527C4.0752 1.8026 3.97383 2.65162 3.24534 3.38011C2.51686 4.1086 1.66784 4.20996 1.27051 4.20996V-1.79004C0.742969 -1.79004 -0.203706 -1.65612 -0.997297 -0.862534C-1.79089 -0.0689392 -1.9248 0.877731 -1.9248 1.40527H4.0752ZM1.28617 4.20992L10.6368 4.16109L10.6054 -1.83883L1.25484 -1.79L1.28617 4.20992ZM10.7 4.1601C12.0248 4.12523 13.1336 4.42127 14.111 5.00561L17.1898 -0.144279C15.1724 -1.35031 12.9283 -1.90062 10.5422 -1.83783L10.7 4.1601ZM14.1233 5.01289C15.1942 5.64626 16.0346 6.49001 16.6743 7.5834L21.853 4.55332C20.7024 2.58681 19.1339 1.00542 17.1775 -0.151566L14.1233 5.01289ZM16.6936 7.61591C17.312 8.64279 17.6309 9.78045 17.6309 11.0977H23.6309C23.6309 8.73647 23.0383 6.52127 21.8337 4.52081L16.6936 7.61591ZM17.6309 11.0977V25.4531H23.6309V11.0977H17.6309ZM17.6309 25.4531C17.6309 26.8664 17.2962 28.1003 16.646 29.2182L21.8325 32.2349C23.0378 30.1627 23.6309 27.881 23.6309 25.4531H17.6309ZM16.6644 29.187C15.9703 30.3478 15.0672 31.2548 13.9281 31.943L17.0308 37.0785C19.0168 35.8786 20.6202 34.2628 21.8141 32.2661L16.6644 29.187ZM13.9479 31.9312C12.8717 32.5702 11.6245 32.9269 10.1321 32.9516L10.2312 38.9508C12.6776 38.9103 14.9623 38.3068 17.0111 37.0903L13.9479 31.9312ZM10.5791 4.14287L7.08793 4.1917L7.17184 10.1911L10.663 10.1423L10.5791 4.14287ZM4.12989 7.18494L4.08106 29.8412L10.081 29.8541L10.1299 7.19787L4.12989 7.18494ZM7.08105 32.8477H10.1816V26.8477H7.08105V32.8477ZM10.1816 32.8477C12.2028 32.8477 14.0228 32.1074 15.4481 30.6547L11.1652 26.4527C10.8978 26.7253 10.6344 26.8477 10.1816 26.8477V32.8477ZM15.4481 30.6547C16.8426 29.2333 17.5762 27.4463 17.5762 25.4531H11.5762C11.5762 25.8688 11.4634 26.1488 11.1652 26.4527L15.4481 30.6547ZM17.5762 25.4531V11.0488H11.5762V25.4531H17.5762ZM17.5762 11.0488C17.5762 9.15676 16.8417 7.48477 15.5256 6.16872L11.283 10.4114C11.5294 10.6578 11.5762 10.825 11.5762 11.0488H17.5762ZM15.5474 6.1907C14.2055 4.82085 12.4781 4.08493 10.5302 4.14395L10.712 10.1412C10.9126 10.1351 11.0406 10.1642 11.2612 10.3894L15.5474 6.1907ZM24.5615 35.7559L21.5615 35.7473V35.7559H24.5615ZM24.6592 1.40527L27.6592 1.4138V1.40527H24.6592ZM43.5557 6.06836L40.9882 7.62014L40.9944 7.63042L41.0007 7.64065L43.5557 6.06836ZM43.043 16.9326L40.6292 15.1511L40.6154 15.1699L40.6018 15.1889L43.043 16.9326ZM41.7002 18.4463L39.8261 16.1037L37.34 18.0926L39.473 20.4562L41.7002 18.4463ZM44.4102 25.502H41.4102V25.5091L41.4102 25.5162L44.4102 25.502ZM44.459 35.7559H47.459V35.7487L47.459 35.7416L44.459 35.7559ZM30.665 21.0586V18.0586H27.675L27.6651 21.0486L30.665 21.0586ZM30.6162 35.7559L27.6162 35.7459V35.7559H30.6162ZM30.665 7.19141V4.19141H27.665V7.19141H30.665ZM30.665 15.0527H27.665V18.0527H30.665V15.0527ZM37.6963 13.9053L35.6416 11.7194L35.6305 11.7298L35.6196 11.7402L37.6963 13.9053ZM37.7451 8.36328L35.6238 10.4846L35.635 10.4958L35.6462 10.5068L37.7451 8.36328ZM30.4209 33H24.7568V39H30.4209V33ZM24.7568 33C25.3538 33 26.2768 33.2197 26.953 34.0649C27.5268 34.7822 27.5615 35.5167 27.5615 35.7559H21.5615C21.5615 36.1578 21.6288 37.0144 22.2677 37.813C23.009 38.7396 24.0296 39 24.7568 39V33ZM27.5615 35.7644L27.6592 1.4138L21.6592 1.39674L21.5615 35.7473L27.5615 35.7644ZM27.6592 1.40527C27.6592 1.8026 27.5578 2.65162 26.8293 3.38011C26.1008 4.1086 25.2518 4.20996 24.8545 4.20996V-1.79004C24.327 -1.79004 23.3803 -1.65612 22.5867 -0.862534C21.7931 -0.0689392 21.6592 0.877731 21.6592 1.40527H27.6592ZM24.8545 4.20996H34.9619V-1.79004H24.8545V4.20996ZM34.9619 4.20996C36.2572 4.20996 37.395 4.51826 38.436 5.12269L41.4488 -0.0660477C39.4624 -1.21944 37.2799 -1.79004 34.9619 -1.79004V4.20996ZM38.436 5.12269C39.5192 5.75167 40.3566 6.57523 40.9882 7.62014L46.1231 4.51658C44.9643 2.59926 43.3929 1.06278 41.4488 -0.0660477L38.436 5.12269ZM41.0007 7.64065C41.5989 8.61282 41.9229 9.73708 41.9229 11.0977H47.9229C47.9229 8.71474 47.3353 6.48615 46.1106 4.49607L41.0007 7.64065ZM41.9229 11.0977C41.9229 12.0105 41.7834 12.7518 41.5542 13.3596L47.1684 15.4764C47.688 14.0984 47.9229 12.6263 47.9229 11.0977H41.9229ZM41.5542 13.3596C41.2541 14.1555 40.9354 14.7363 40.6292 15.1511L45.4567 18.7142C46.1597 17.7617 46.7198 16.6661 47.1684 15.4764L41.5542 13.3596ZM40.6018 15.1889C40.1888 15.767 39.9268 16.0231 39.8261 16.1037L43.5743 20.7889C44.2874 20.2184 44.9206 19.4654 45.4842 18.6763L40.6018 15.1889ZM39.473 20.4562C40.7811 21.9057 41.4102 23.5411 41.4102 25.502H47.4102C47.4102 22.0592 46.2325 18.9908 43.9274 16.4364L39.473 20.4562ZM41.4102 25.5162L41.459 35.7701L47.459 35.7416L47.4101 25.4877L41.4102 25.5162ZM41.459 35.7559C41.459 35.3748 41.5563 34.538 42.2766 33.8176C42.997 33.0973 43.8338 33 44.2148 33V39C44.7587 39 45.7175 38.862 46.5193 38.0603C47.321 37.2586 47.459 36.2997 47.459 35.7559H41.459ZM44.2148 33H38.5508V39H44.2148V33ZM38.5508 33C38.7741 33 39.4887 33.0266 40.2043 33.5634C41.0822 34.2218 41.3555 35.1704 41.3555 35.8535H35.3555C35.3555 36.6343 35.6613 37.6561 36.6043 38.3634C37.385 38.9489 38.1972 39 38.5508 39V33ZM41.3555 35.8535V25.502H35.3555V35.8535H41.3555ZM41.3555 25.502C41.3555 23.5102 40.6237 21.7258 39.2469 20.296L34.925 24.4579C35.2409 24.7859 35.3555 25.0848 35.3555 25.502H41.3555ZM39.2469 20.296C37.8263 18.8208 36.0005 18.0586 33.9609 18.0586V24.0586C34.3953 24.0586 34.6529 24.1753 34.925 24.4579L39.2469 20.296ZM33.9609 18.0586H30.665V24.0586H33.9609V18.0586ZM27.6651 21.0486L27.6162 35.7459L33.6162 35.7658L33.665 21.0686L27.6651 21.0486ZM27.6162 35.7559C27.6162 35.5167 27.6509 34.7822 28.2248 34.0649C28.9009 33.2197 29.8239 33 30.4209 33V39C31.1481 39 32.1688 38.7396 32.91 37.813C33.5489 37.0144 33.6162 36.1578 33.6162 35.7559H27.6162ZM34.9619 4.19141H30.665V10.1914H34.9619V4.19141ZM27.665 7.19141V15.0527H33.665V7.19141H27.665ZM30.665 18.0527H34.9619V12.0527H30.665V18.0527ZM34.9619 18.0527C36.8249 18.0527 38.4645 17.3254 39.773 16.0703L35.6196 11.7402C35.333 12.0151 35.1497 12.0527 34.9619 12.0527V18.0527ZM39.751 16.0912C41.1617 14.7651 41.917 13.0408 41.917 11.0977H35.917C35.917 11.368 35.8584 11.5155 35.6416 11.7194L39.751 16.0912ZM41.917 11.0977C41.917 9.20329 41.1799 7.52783 39.844 6.21975L35.6462 10.5068C35.8728 10.7287 35.917 10.8761 35.917 11.0977H41.917ZM39.8664 6.24196C38.5405 4.91605 36.8568 4.19141 34.9619 4.19141V10.1914C35.2154 10.1914 35.3872 10.248 35.6238 10.4846L39.8664 6.24196ZM48.6826 35.7559L45.6826 35.7516V35.7559H48.6826ZM48.7314 1.40527L51.7314 1.40954V1.40527H48.7314ZM54.7373 7.24023V4.24023H51.7373V7.24023H54.7373ZM54.7373 15.0527H51.7373V18.0527H54.7373V15.0527ZM65.1865 15.248H62.1865V15.261L62.1866 15.2739L65.1865 15.248ZM65.2354 20.9121H68.2354V20.8992L68.2352 20.8862L65.2354 20.9121ZM54.7373 21.1074V18.1074H51.7373V21.1074H54.7373ZM54.7373 29.8477H51.7373V32.8477H54.7373V29.8477ZM65.04 33H48.8779V39H65.04V33ZM48.8779 33C49.4749 33 50.3979 33.2197 51.0741 34.0649C51.6479 34.7822 51.6826 35.5167 51.6826 35.7559H45.6826C45.6826 36.1578 45.7499 37.0144 46.3888 37.813C47.1301 38.7396 48.1507 39 48.8779 39V33ZM51.6826 35.7601L51.7314 1.40954L45.7314 1.40101L45.6826 35.7516L51.6826 35.7601ZM51.7314 1.40527C51.7314 1.8026 51.6301 2.65162 50.9016 3.38011C50.1731 4.1086 49.3241 4.20996 48.9268 4.20996V-1.79004C48.3992 -1.79004 47.4525 -1.65612 46.659 -0.862534C45.8654 -0.0689392 45.7314 0.877731 45.7314 1.40527H51.7314ZM48.9268 4.20996H64.9912V-1.79004H48.9268V4.20996ZM64.9912 4.20996C64.3942 4.20996 63.4712 3.99023 62.7951 3.14508C62.2212 2.42776 62.1865 1.69324 62.1865 1.4541H68.1865C68.1865 1.05219 68.1193 0.19561 67.4803 -0.603088C66.7391 -1.52962 65.7184 -1.79004 64.9912 -1.79004V4.20996ZM62.1865 1.4541V7.04492H68.1865V1.4541H62.1865ZM62.1865 7.04492C62.1865 6.64759 62.2879 5.79858 63.0164 5.07008C63.7449 4.3416 64.5939 4.24023 64.9912 4.24023V10.2402C65.5188 10.2402 66.4654 10.1063 67.259 9.31273C68.0526 8.51913 68.1865 7.57246 68.1865 7.04492H62.1865ZM64.9912 4.24023H54.7373V10.2402H64.9912V4.24023ZM51.7373 7.24023V15.0527H57.7373V7.24023H51.7373ZM54.7373 18.0527H64.9912V12.0527H54.7373V18.0527ZM64.9912 18.0527C64.5939 18.0527 63.7449 17.9514 63.0164 17.2229C62.2879 16.4944 62.1865 15.6454 62.1865 15.248H68.1865C68.1865 14.7205 68.0526 13.7738 67.259 12.9802C66.4654 12.1867 65.5188 12.0527 64.9912 12.0527V18.0527ZM62.1866 15.2739L62.2355 20.938L68.2352 20.8862L68.1864 15.2222L62.1866 15.2739ZM62.2354 20.9121C62.2354 20.5148 62.3367 19.6658 63.0652 18.9373C63.7937 18.2088 64.6427 18.1074 65.04 18.1074V24.1074C65.5676 24.1074 66.5143 23.9735 67.3078 23.1799C68.1014 22.3863 68.2354 21.4397 68.2354 20.9121H62.2354ZM65.04 18.1074H54.7373V24.1074H65.04V18.1074ZM51.7373 21.1074V29.8477H57.7373V21.1074H51.7373ZM54.7373 32.8477H65.04V26.8477H54.7373V32.8477ZM65.04 32.8477C64.443 32.8477 63.52 32.6279 62.8439 31.7828C62.2701 31.0655 62.2354 30.3309 62.2354 30.0918H68.2354C68.2354 29.6899 68.1681 28.8333 67.5291 28.0346C66.7879 27.1081 65.7673 26.8477 65.04 26.8477V32.8477ZM62.2354 30.0918V35.8047H68.2354V30.0918H62.2354ZM62.2354 35.8047C62.2354 35.4074 62.3367 34.5583 63.0652 33.8298C63.7937 33.1014 64.6427 33 65.04 33V39C65.5676 39 66.5143 38.8661 67.3078 38.0725C68.1014 37.2789 68.2354 36.3322 68.2354 35.8047H62.2354ZM67.9941 35.7559L65.0419 35.2229L64.9941 35.4872V35.7559H67.9941ZM74.1953 1.40527L71.2849 0.677666L71.2607 0.774292L71.243 0.872307L74.1953 1.40527ZM81.9346 1.40527L84.8904 0.89267L84.8717 0.784332L84.845 0.677666L81.9346 1.40527ZM87.8916 35.7559L90.8767 35.4574L90.866 35.3498L90.8475 35.2433L87.8916 35.7559ZM81.8857 35.7559L84.8709 35.4574L84.864 35.3887L84.854 35.3205L81.8857 35.7559ZM81.3486 32.0938L84.3169 31.6584L83.9407 29.0938H81.3486V32.0938ZM74.5371 32.0938V29.0938H71.945L71.5689 31.6584L74.5371 32.0938ZM74 35.7559L71.0318 35.3205L71.0218 35.3887L71.0149 35.4574L74 35.7559ZM77.7842 12.709L80.7465 13.183L80.7562 13.1225L80.7634 13.0618L77.7842 12.709ZM75.5381 26.7471L72.5758 26.2731L72.0199 29.7471H75.5381V26.7471ZM80.3477 26.7471V29.7471H83.8178L83.3161 26.3134L80.3477 26.7471ZM78.2969 12.709L81.2654 12.2753L81.2629 12.2582L81.2602 12.2411L78.2969 12.709ZM78.0039 10.8535L80.9672 10.3856L75.0247 10.5007L78.0039 10.8535ZM70.9464 36.2888L77.1476 1.93824L71.243 0.872307L65.0419 35.2229L70.9464 36.2888ZM77.1057 2.13288C77.0089 2.52035 76.7582 3.11873 76.1548 3.60139C75.5421 4.0916 74.8817 4.20996 74.4395 4.20996V-1.79004C73.867 -1.79004 73.1008 -1.63913 72.4067 -1.08382C71.722 -0.536049 71.4143 0.159996 71.2849 0.677666L77.1057 2.13288ZM74.4395 4.20996H81.6904V-1.79004H74.4395V4.20996ZM81.6904 4.20996C81.2482 4.20996 80.5878 4.0916 79.975 3.60139C79.3717 3.11873 79.121 2.52035 79.0241 2.13288L84.845 0.677666C84.7156 0.159996 84.4079 -0.536049 83.7232 -1.08382C83.0291 -1.63913 82.2629 -1.79004 81.6904 -1.79004V4.20996ZM78.9787 1.91788L84.9357 36.2685L90.8475 35.2433L84.8904 0.89267L78.9787 1.91788ZM84.9065 36.0544C84.8796 35.7851 84.839 34.9066 85.5124 34.0649C86.2542 33.1376 87.2468 33 87.6963 33V39C88.2923 39 89.3906 38.8217 90.1976 37.813C90.9361 36.8899 90.9199 35.8893 90.8767 35.4574L84.9065 36.0544ZM87.6963 33H82.1543V39H87.6963V33ZM82.1543 33C82.5575 33 83.3086 33.1059 83.9831 33.7191C84.6554 34.3304 84.8315 35.0637 84.8709 35.4574L78.9006 36.0544C78.9563 36.6107 79.1852 37.4662 79.9471 38.1588C80.7111 38.8534 81.5883 39 82.1543 39V33ZM84.854 35.3205L84.3169 31.6584L78.3804 32.5291L78.9175 36.1912L84.854 35.3205ZM81.3486 29.0938H74.5371V35.0938H81.3486V29.0938ZM71.5689 31.6584L71.0318 35.3205L76.9682 36.1912L77.5054 32.5291L71.5689 31.6584ZM71.0149 35.4574C71.0472 35.1344 71.1865 34.4366 71.8054 33.8176C72.4703 33.1528 73.2613 33 73.7559 33V39C74.3969 39 75.3019 38.8065 76.0481 38.0603C76.7484 37.3599 76.9365 36.5401 76.9851 36.0544L71.0149 35.4574ZM73.7559 33H68.1895V39H73.7559V33ZM68.1895 33C68.7865 33 69.7095 33.2197 70.3856 34.0649C70.9594 34.7822 70.9941 35.5167 70.9941 35.7559H64.9941C64.9941 36.1578 65.0614 37.0144 65.7004 37.813C66.4416 38.7396 67.4622 39 68.1895 39V33ZM74.8219 12.235L72.5758 26.2731L78.5004 27.221L80.7465 13.183L74.8219 12.235ZM75.5381 29.7471H80.3477V23.7471H75.5381V29.7471ZM83.3161 26.3134L81.2654 12.2753L75.3284 13.1426L77.3792 27.1807L83.3161 26.3134ZM81.2602 12.2411L80.9672 10.3856L75.0406 11.3214L75.3336 13.1769L81.2602 12.2411ZM75.0247 10.5007L74.805 12.3562L80.7634 13.0618L80.9831 11.2063L75.0247 10.5007ZM91.0166 35.7559L88.0166 35.7473V35.7559H91.0166ZM91.1143 1.40527L94.1143 1.4138V1.40527H91.1143ZM97.7549 1.40527L100.221 -0.302834L100.189 -0.349403L100.155 -0.39473L97.7549 1.40527ZM102.32 7.99707L99.8541 9.70518L102.327 13.2756L104.791 9.69898L102.32 7.99707ZM106.861 1.40527L104.461 -0.39473L104.425 -0.346397L104.391 -0.296638L106.861 1.40527ZM113.575 1.40527H110.575L110.575 1.4138L113.575 1.40527ZM113.673 35.7559H116.673L116.673 35.7473L113.673 35.7559ZM107.618 35.7559H110.618L110.618 35.7501L107.618 35.7559ZM107.569 10.2432L110.569 10.2374L110.551 0.629326L105.099 8.54089L107.569 10.2432ZM102.32 17.8604L99.8426 19.5518L102.309 23.1642L104.791 19.5626L102.32 17.8604ZM97.1201 10.2432L99.5978 8.55167L94.1387 0.555191L94.1201 10.2374L97.1201 10.2432ZM97.0713 35.7559L94.0713 35.7501V35.7559H97.0713ZM96.876 33H91.2119V39H96.876V33ZM91.2119 33C91.8089 33 92.7319 33.2197 93.408 34.0649C93.9819 34.7822 94.0166 35.5167 94.0166 35.7559H88.0166C88.0166 36.1578 88.0839 37.0144 88.7228 37.813C89.464 38.7396 90.4847 39 91.2119 39V33ZM94.0166 35.7644L94.1142 1.4138L88.1143 1.39674L88.0166 35.7473L94.0166 35.7644ZM94.1143 1.40527C94.1143 1.8026 94.0129 2.65162 93.2844 3.38011C92.5559 4.1086 91.7069 4.20996 91.3096 4.20996V-1.79004C90.782 -1.79004 89.8354 -1.65612 89.0418 -0.862534C88.2482 -0.0689392 88.1143 0.877731 88.1143 1.40527H94.1143ZM91.3096 4.20996H97.4131V-1.79004H91.3096V4.20996ZM97.4131 4.20996C96.9519 4.20996 96.5004 4.08788 96.1078 3.86352C95.7346 3.65029 95.4945 3.3914 95.3549 3.20528L100.155 -0.39473C99.6478 -1.07088 98.7219 -1.79004 97.4131 -1.79004V4.20996ZM95.2886 3.11338L99.8541 9.70518L104.787 6.28896L100.221 -0.302834L95.2886 3.11338ZM104.791 9.69898L109.332 3.10719L104.391 -0.296638L99.8498 6.29516L104.791 9.69898ZM109.261 3.20528C109.093 3.42999 108.827 3.69844 108.438 3.90585C108.039 4.11868 107.617 4.20996 107.228 4.20996V-1.79004C106.022 -1.79004 105.053 -1.18376 104.461 -0.39473L109.261 3.20528ZM107.228 4.20996H113.355V-1.79004H107.228V4.20996ZM113.355 4.20996C113.048 4.20996 112.256 4.14922 111.527 3.50101C110.731 2.79297 110.575 1.90012 110.575 1.40527H116.575C116.575 0.78022 116.383 -0.210281 115.513 -0.983437C114.711 -1.69674 113.81 -1.79004 113.355 -1.79004V4.20996ZM110.575 1.4138L110.673 35.7644L116.673 35.7473L116.575 1.39674L110.575 1.4138ZM110.673 35.7559C110.673 35.5167 110.708 34.7822 111.281 34.0649C111.958 33.2197 112.881 33 113.478 33V39C114.205 39 115.225 38.7396 115.967 37.813C116.606 37.0144 116.673 36.1578 116.673 35.7559H110.673ZM113.478 33H107.813V39H113.478V33ZM107.813 33C108.41 33 109.333 33.2197 110.01 34.0649C110.583 34.7822 110.618 35.5167 110.618 35.7559H104.618C104.618 36.1578 104.685 37.0144 105.324 37.813C106.066 38.7396 107.086 39 107.813 39V33ZM110.618 35.7501L110.569 10.2374L104.569 10.2489L104.618 35.7616L110.618 35.7501ZM105.099 8.54089L99.85 16.1581L104.791 19.5626L110.04 11.9454L105.099 8.54089ZM104.798 16.1689L99.5978 8.55167L94.6424 11.9347L99.8426 19.5518L104.798 16.1689ZM94.1201 10.2374L94.0713 35.7501L100.071 35.7616L100.12 10.2489L94.1201 10.2374ZM94.0713 35.7559C94.0713 35.5167 94.106 34.7822 94.6799 34.0649C95.356 33.2197 96.279 33 96.876 33V39C97.6032 39 98.6238 38.7396 99.3651 37.813C100.004 37.0144 100.071 36.1578 100.071 35.7559H94.0713ZM121.461 35.1211L119.889 37.6761L119.895 37.6799L119.901 37.6837L121.461 35.1211ZM117.896 31.4834L115.295 32.9778L115.305 32.9942L115.314 33.0105L117.896 31.4834ZM123.731 29.2861L121.522 31.3153L121.532 31.3267L121.543 31.338L123.731 29.2861ZM129.029 29.2617L131.239 31.2909L131.249 31.2798L131.259 31.2686L129.029 29.2617ZM127.735 23.2559L126.145 25.7999L126.196 25.8312L126.247 25.8606L127.735 23.2559ZM126.71 22.6699L125.166 25.2424L125.226 25.2783L125.288 25.3113L126.71 22.6699ZM123.585 20.9365L122.088 23.5364L122.118 23.5536L122.148 23.5702L123.585 20.9365ZM122.022 20.0576L120.499 22.6422L120.539 22.6658L120.58 22.6881L122.022 20.0576ZM117.945 16.0293L115.306 17.4547L115.314 17.4705L115.323 17.4862L117.945 16.0293ZM117.994 5.53125L115.439 3.95896L115.435 3.96517L115.432 3.97141L117.994 5.53125ZM121.559 2.01562L123.081 4.6007L123.09 4.59558L121.559 2.01562ZM131.251 2.01562L132.803 -0.551865L132.792 -0.558136L132.782 -0.564331L131.251 2.01562ZM134.791 5.58008L132.211 7.11104L132.217 7.12148L132.224 7.13186L134.791 5.58008ZM130.128 14.6621H133.128V14.6443L133.128 14.6264L130.128 14.6621ZM130.079 10.5605H127.079V10.5784L127.079 10.5963L130.079 10.5605ZM123.316 13.2949L120.769 14.8798L120.782 14.9L120.795 14.92L123.316 13.2949ZM125.88 15.3945L124.456 18.0348L124.497 18.057L124.538 18.0778L125.88 15.3945ZM128.346 16.7617L126.857 19.3664L126.901 19.3914L126.945 19.4149L128.346 16.7617ZM129.933 17.6162L128.483 20.2429L128.519 20.2624L128.554 20.2809L129.933 17.6162ZM130.787 18.0557L132.251 15.4368L132.19 15.4032L132.129 15.3724L130.787 18.0557ZM134.718 21.4736L132.273 23.2118L132.28 23.2215L132.287 23.2312L134.718 21.4736ZM134.864 31.5811L137.446 33.1082L137.453 33.0978L137.459 33.0875L134.864 31.5811ZM126.368 33.4883C125.137 33.4883 124.042 33.1803 123.021 32.5585L119.901 37.6837C121.874 38.8848 124.051 39.4883 126.368 39.4883V33.4883ZM123.033 32.5661C121.972 31.9131 121.129 31.0553 120.479 29.9563L115.314 33.0105C116.455 34.9389 117.988 36.5062 119.889 37.6761L123.033 32.5661ZM120.498 29.989C119.889 28.9293 119.578 27.7708 119.578 26.4541H113.578C113.578 28.7833 114.146 30.9776 115.295 32.9778L120.498 29.989ZM119.578 26.4541V24.1592H113.578V26.4541H119.578ZM119.578 24.1592C119.578 24.4651 119.515 25.2545 118.859 25.9758C118.154 26.7513 117.281 26.8906 116.822 26.8906V20.8906C116.201 20.8906 115.206 21.0747 114.419 21.9397C113.682 22.7506 113.578 23.6742 113.578 24.1592H119.578ZM116.822 26.8906H122.438V20.8906H116.822V26.8906ZM122.438 26.8906C121.735 26.8906 120.794 26.5974 120.158 25.7223C119.65 25.0247 119.633 24.3441 119.633 24.1592H125.633C125.633 23.7952 125.583 22.9803 125.01 22.1932C124.309 21.2287 123.27 20.8906 122.438 20.8906V26.8906ZM119.633 24.1592V26.4541H125.633V24.1592H119.633ZM119.633 26.4541C119.633 28.2902 120.277 29.96 121.522 31.3153L125.941 27.2569C125.721 27.0173 125.633 26.799 125.633 26.4541H119.633ZM121.543 31.338C122.814 32.6939 124.473 33.458 126.368 33.458V27.458C126.213 27.458 126.114 27.4408 125.92 27.2343L121.543 31.338ZM126.368 33.458C128.287 33.458 129.964 32.6795 131.239 31.2909L126.82 27.2325C126.63 27.439 126.533 27.458 126.368 27.458V33.458ZM131.259 31.2686C132.468 29.9251 133.128 28.2811 133.128 26.4541H127.128C127.128 26.743 127.055 26.9708 126.799 27.2548L131.259 31.2686ZM133.128 26.4541C133.128 23.6735 131.24 21.8033 129.224 20.6511L126.247 25.8606C126.815 26.185 127.049 26.4317 127.128 26.5361C127.161 26.5808 127.157 26.5871 127.146 26.5555C127.134 26.5211 127.128 26.4825 127.128 26.4541H133.128ZM129.325 20.7119C128.989 20.5014 128.585 20.272 128.132 20.0285L125.288 25.3113C125.682 25.5236 125.961 25.6848 126.145 25.7999L129.325 20.7119ZM128.253 20.0974C127.799 19.8248 127.271 19.5262 126.676 19.2033L123.814 24.4764C124.358 24.7719 124.807 25.0267 125.166 25.2424L128.253 20.0974ZM126.676 19.2033C126.108 18.8949 125.557 18.5948 125.022 18.3028L122.148 23.5702C122.687 23.8642 123.243 24.1663 123.814 24.4764L126.676 19.2033ZM125.082 18.3367C124.528 18.0178 123.989 17.7146 123.465 17.4272L120.58 22.6881C121.065 22.954 121.568 23.2367 122.088 23.5364L125.082 18.3367ZM123.546 17.473C122.114 16.6293 121.167 15.6511 120.568 14.5724L115.323 17.4862C116.514 19.6302 118.285 21.3375 120.499 22.6422L123.546 17.473ZM120.585 14.6039C119.964 13.4532 119.627 12.1275 119.627 10.5605H113.627C113.627 13.03 114.169 15.3501 115.306 17.4547L120.585 14.6039ZM119.627 10.5605C119.627 9.22174 119.948 8.09063 120.557 7.09109L115.432 3.97141C114.217 5.96666 113.627 8.18842 113.627 10.5605H119.627ZM120.549 7.10354C121.21 6.02921 122.048 5.20913 123.081 4.60069L120.036 -0.569443C118.14 0.547386 116.601 2.07105 115.439 3.95896L120.549 7.10354ZM123.09 4.59558C124.106 3.99213 125.181 3.69727 126.368 3.69727V-2.30273C124.105 -2.30273 121.973 -1.71869 120.028 -0.564331L123.09 4.59558ZM126.368 3.69727C127.62 3.69727 128.717 4.00017 129.72 4.59558L132.782 -0.564331C130.823 -1.72673 128.664 -2.30273 126.368 -2.30273V3.69727ZM129.699 4.58311C130.76 5.22402 131.586 6.05698 132.211 7.11104L137.371 4.04912C136.239 2.14094 134.705 0.597595 132.803 -0.551865L129.699 4.58311ZM132.224 7.13186C132.818 8.11516 133.134 9.23264 133.134 10.5605H139.134C139.134 8.21007 138.555 6.00724 137.359 4.0283L132.224 7.13186ZM133.134 10.5605V14.6621H139.134V10.5605H133.134ZM133.134 14.6621C133.134 14.2648 133.235 13.4158 133.964 12.6873C134.692 11.9588 135.541 11.8574 135.938 11.8574V17.8574C136.466 17.8574 137.413 17.7235 138.206 16.9299C139 16.1363 139.134 15.1897 139.134 14.6621H133.134ZM135.938 11.8574H130.323V17.8574H135.938V11.8574ZM130.323 11.8574C130.721 11.8574 131.57 11.9588 132.298 12.6873C133.027 13.4158 133.128 14.2648 133.128 14.6621H127.128C127.128 15.1897 127.262 16.1363 128.055 16.9299C128.849 17.7235 129.796 17.8574 130.323 17.8574V11.8574ZM133.128 14.6264L133.079 10.5248L127.079 10.5963L127.128 14.6978L133.128 14.6264ZM133.079 10.5605C133.079 8.70693 132.473 6.95354 131.102 5.58278L126.859 9.82542C126.953 9.9195 127.079 10.0704 127.079 10.5605H133.079ZM131.102 5.58278C129.823 4.30441 128.196 3.60547 126.368 3.60547V9.60547C126.558 9.60547 126.673 9.63895 126.859 9.82542L131.102 5.58278ZM126.368 3.60547C124.473 3.60547 122.814 4.36954 121.543 5.72552L125.92 9.82917C126.114 9.62264 126.213 9.60547 126.368 9.60547V3.60547ZM121.543 5.72552C120.287 7.06474 119.633 8.72679 119.633 10.5605H125.633C125.633 10.2459 125.711 10.0525 125.92 9.82917L121.543 5.72552ZM119.633 10.5605C119.633 12.0646 119.949 13.5609 120.769 14.8798L125.864 11.71C125.773 11.5641 125.633 11.2375 125.633 10.5605H119.633ZM120.795 14.92C121.66 16.2627 123.018 17.2591 124.456 18.0348L127.304 12.7542C126.268 12.1953 125.917 11.792 125.838 11.6698L120.795 14.92ZM124.538 18.0778C124.538 18.0778 124.54 18.0785 124.543 18.0803C124.547 18.0821 124.551 18.0845 124.558 18.0877C124.57 18.0943 124.587 18.103 124.608 18.1143C124.651 18.1369 124.707 18.1667 124.777 18.2046C124.917 18.2802 125.102 18.3814 125.334 18.5095L128.232 13.2561C127.777 13.0051 127.418 12.8093 127.222 12.7113L124.538 18.0778ZM125.334 18.5095C125.79 18.7614 126.298 19.0468 126.857 19.3664L129.834 14.157C129.254 13.8256 128.72 13.5251 128.232 13.2561L125.334 18.5095ZM126.945 19.4149C127.519 19.7173 128.031 19.9932 128.483 20.2429L131.382 14.9895C130.89 14.7184 130.345 14.4246 129.746 14.1086L126.945 19.4149ZM128.554 20.2809C129.017 20.5203 129.325 20.6786 129.445 20.7389L132.129 15.3724C132.054 15.3351 131.792 15.2004 131.311 14.9516L128.554 20.2809ZM129.324 20.6745C130.653 21.4171 131.606 22.2735 132.273 23.2118L137.163 19.7355C135.909 17.9719 134.242 16.5497 132.251 15.4368L129.324 20.6745ZM132.287 23.2312C132.83 23.9828 133.183 24.998 133.183 26.4541H139.183C139.183 23.9714 138.559 21.6663 137.149 19.7161L132.287 23.2312ZM133.183 26.4541C133.183 27.8773 132.86 29.0583 132.27 30.0746L137.459 33.0875C138.626 31.0764 139.183 28.8395 139.183 26.4541H133.183ZM132.282 30.0539C131.638 31.1435 130.807 31.9738 129.769 32.59L132.831 37.7499C134.755 36.6083 136.3 35.046 137.446 33.1082L132.282 30.0539ZM129.769 32.59C128.774 33.1802 127.664 33.4883 126.368 33.4883V39.4883C128.686 39.4883 130.863 38.9174 132.831 37.7499L129.769 32.59ZM143.897 35.1211L142.325 37.6761L142.331 37.6799L142.338 37.6837L143.897 35.1211ZM140.357 31.459L137.738 32.9206L137.747 32.937L137.756 32.9534L140.357 31.459ZM139.063 26.3076L136.063 26.2982V26.3076H139.063ZM139.112 10.707L142.112 10.7164V10.707H139.112ZM140.382 5.67773L142.994 7.15392L143 7.14183L140.382 5.67773ZM143.873 2.04004L145.445 4.59502L145.453 4.59024L143.873 2.04004ZM153.81 1.99121L152.232 4.54323L152.239 4.54716L152.245 4.55106L153.81 1.99121ZM157.301 5.62891L154.688 7.10233L154.697 7.11888L154.706 7.13531L157.301 5.62891ZM146.241 29.3105L144.03 31.3377L144.04 31.3493L144.051 31.3608L146.241 29.3105ZM151.539 29.1885L153.829 31.1263L153.838 31.1156L153.847 31.1047L151.539 29.1885ZM157.35 31.4346L159.939 32.9496L159.948 32.9334L159.958 32.9171L157.35 31.4346ZM153.81 35.1211L155.394 37.6683L155.405 37.6619L155.415 37.6555L153.81 35.1211ZM148.854 33.4883C147.579 33.4883 146.47 33.1748 145.457 32.5585L142.338 37.6837C144.32 38.8903 146.514 39.4883 148.854 39.4883V33.4883ZM145.47 32.5661C144.421 31.9208 143.592 31.0674 142.959 29.9646L137.756 32.9534C138.88 34.9105 140.412 36.4985 142.325 37.6761L145.47 32.5661ZM142.977 29.9974C142.38 28.9276 142.063 27.719 142.063 26.3076H136.063C136.063 28.6722 136.609 30.8979 137.738 32.9206L142.977 29.9974ZM142.063 26.317L142.112 10.7164L136.112 10.6976L136.063 26.2982L142.063 26.317ZM142.112 10.707C142.112 9.32688 142.422 8.16576 142.994 7.15391L137.77 4.20156C136.649 6.1845 136.112 8.37624 136.112 10.707H142.112ZM143 7.14183C143.596 6.07643 144.399 5.23888 145.445 4.59502L142.301 -0.514938C140.385 0.664108 138.86 2.25169 137.763 4.21364L143 7.14183ZM145.453 4.59024C146.459 3.96712 147.568 3.64844 148.854 3.64844V-2.35156C146.493 -2.35156 144.282 -1.74252 142.293 -0.510162L145.453 4.59024ZM148.854 3.64844C150.204 3.64844 151.3 3.96696 152.232 4.54323L155.387 -0.560806C153.422 -1.77491 151.214 -2.35156 148.854 -2.35156V3.64844ZM152.245 4.55106C153.263 5.1731 154.07 6.00728 154.688 7.10233L159.914 4.15549C158.806 2.19064 157.286 0.599693 155.374 -0.568634L152.245 4.55106ZM154.706 7.13531C155.301 8.15961 155.619 9.32639 155.619 10.707H161.619C161.619 8.34418 161.058 6.12554 159.895 4.1225L154.706 7.13531ZM155.619 10.707V13.002H161.619V10.707H155.619ZM155.619 13.002C155.619 12.6046 155.721 11.7556 156.449 11.0271C157.177 10.2986 158.027 10.1973 158.424 10.1973V16.1973C158.951 16.1973 159.898 16.0633 160.692 15.2698C161.485 14.4762 161.619 13.5295 161.619 13.002H155.619ZM158.424 10.1973H152.809V16.1973H158.424V10.1973ZM152.809 10.1973C153.206 10.1973 154.055 10.2986 154.783 11.0271C155.512 11.7556 155.613 12.6046 155.613 13.002H149.613C149.613 13.5295 149.747 14.4762 150.541 15.2698C151.334 16.0633 152.281 16.1973 152.809 16.1973V10.1973ZM155.613 13.002V10.707H149.613V13.002H155.613ZM155.613 10.707C155.613 8.8868 154.999 7.2137 153.771 5.84621L149.307 9.85497C149.511 10.0825 149.613 10.3137 149.613 10.707H155.613ZM153.771 5.84621C152.485 4.41344 150.777 3.6543 148.854 3.6543V9.6543C149.011 9.6543 149.082 9.6814 149.11 9.69378C149.137 9.70608 149.204 9.74019 149.307 9.85497L153.771 5.84621ZM148.854 3.6543C146.899 3.6543 145.047 4.37112 143.754 6.02991L148.485 9.72009C148.503 9.69713 148.51 9.69229 148.506 9.69559C148.501 9.69919 148.498 9.70058 148.502 9.69888C148.507 9.69675 148.602 9.6543 148.854 9.6543V3.6543ZM143.754 6.02991C142.69 7.39357 142.167 8.99365 142.167 10.707H148.167C148.167 10.272 148.279 9.98403 148.485 9.72009L143.754 6.02991ZM142.167 10.707V26.3076H148.167V10.707H142.167ZM142.167 26.3076C142.167 28.157 142.73 29.9195 144.03 31.3377L148.453 27.2834C148.32 27.1391 148.167 26.8996 148.167 26.3076H142.167ZM144.051 31.3608C145.32 32.7166 146.978 33.458 148.854 33.458V27.458C148.723 27.458 148.664 27.4359 148.638 27.4244C148.61 27.4123 148.54 27.3768 148.431 27.2603L144.051 31.3608ZM148.854 33.458C150.842 33.458 152.564 32.6215 153.829 31.1263L149.249 27.2506C149.134 27.386 149.065 27.4208 149.048 27.4284C149.035 27.4348 148.985 27.458 148.854 27.458V33.458ZM153.847 31.1047C154.982 29.7384 155.613 28.1093 155.613 26.3076H149.613C149.613 26.6218 149.529 26.9133 149.231 27.2722L153.847 31.1047ZM155.613 26.3076V23.9883H149.613V26.3076H155.613ZM155.613 23.9883C155.613 24.3856 155.512 25.2346 154.783 25.9631C154.055 26.6916 153.206 26.793 152.809 26.793V20.793C152.281 20.793 151.334 20.9269 150.541 21.7205C149.747 22.5141 149.613 23.4607 149.613 23.9883H155.613ZM152.809 26.793H158.473V20.793H152.809V26.793ZM158.473 26.793C158.075 26.793 157.226 26.6916 156.498 25.9631C155.769 25.2346 155.668 24.3856 155.668 23.9883H161.668C161.668 23.4607 161.534 22.5141 160.74 21.7205C159.947 20.9269 159 20.793 158.473 20.793V26.793ZM155.668 23.9883V26.3076H161.668V23.9883H155.668ZM155.668 26.3076C155.668 27.6879 155.35 28.8817 154.742 29.9521L159.958 32.9171C161.107 30.895 161.668 28.6709 161.668 26.3076H155.668ZM154.76 29.9195C154.101 31.0455 153.255 31.9211 152.204 32.5866L155.415 37.6555C157.294 36.4656 158.807 34.8835 159.939 32.9496L154.76 29.9195ZM152.225 32.5739C151.267 33.1697 150.171 33.4883 148.854 33.4883V39.4883C151.214 39.4883 153.422 38.8954 155.394 37.6683L152.225 32.5739ZM160.621 35.7559L157.669 35.2229L157.621 35.4872V35.7559H160.621ZM166.822 1.40527L163.912 0.677666L163.888 0.774292L163.87 0.872307L166.822 1.40527ZM174.562 1.40527L177.517 0.89267L177.499 0.784332L177.472 0.677666L174.562 1.40527ZM180.519 35.7559L183.504 35.4574L183.493 35.3498L183.474 35.2433L180.519 35.7559ZM174.513 35.7559L177.498 35.4574L177.491 35.3887L177.481 35.3205L174.513 35.7559ZM173.976 32.0938L176.944 31.6584L176.568 29.0938H173.976V32.0938ZM167.164 32.0938V29.0938H164.572L164.196 31.6584L167.164 32.0938ZM166.627 35.7559L163.659 35.3205L163.649 35.3887L163.642 35.4574L166.627 35.7559ZM170.411 12.709L173.373 13.183L173.383 13.1225L173.39 13.0618L170.411 12.709ZM168.165 26.7471L165.203 26.2731L164.647 29.7471H168.165V26.7471ZM172.975 26.7471V29.7471H176.445L175.943 26.3134L172.975 26.7471ZM170.924 12.709L173.892 12.2753L173.89 12.2582L173.887 12.2411L170.924 12.709ZM170.631 10.8535L173.594 10.3856L167.652 10.5007L170.631 10.8535ZM163.573 36.2888L169.775 1.93824L163.87 0.872307L157.669 35.2229L163.573 36.2888ZM169.733 2.13288C169.636 2.52035 169.385 3.11873 168.782 3.60139C168.169 4.0916 167.509 4.20996 167.066 4.20996V-1.79004C166.494 -1.79004 165.728 -1.63913 165.034 -1.08382C164.349 -0.536049 164.041 0.159996 163.912 0.677666L169.733 2.13288ZM167.066 4.20996H174.317V-1.79004H167.066V4.20996ZM174.317 4.20996C173.875 4.20996 173.215 4.0916 172.602 3.60139C171.999 3.11873 171.748 2.52035 171.651 2.13288L177.472 0.677666C177.343 0.159996 177.035 -0.536049 176.35 -1.08382C175.656 -1.63913 174.89 -1.79004 174.317 -1.79004V4.20996ZM171.606 1.91788L177.563 36.2685L183.474 35.2433L177.517 0.89267L171.606 1.91788ZM177.533 36.0544C177.507 35.7851 177.466 34.9066 178.139 34.0649C178.881 33.1376 179.874 33 180.323 33V39C180.919 39 182.018 38.8217 182.825 37.813C183.563 36.8899 183.547 35.8893 183.504 35.4574L177.533 36.0544ZM180.323 33H174.781V39H180.323V33ZM174.781 33C175.184 33 175.936 33.1059 176.61 33.7191C177.282 34.3304 177.458 35.0637 177.498 35.4574L171.528 36.0544C171.583 36.6107 171.812 37.4662 172.574 38.1588C173.338 38.8534 174.215 39 174.781 39V33ZM177.481 35.3205L176.944 31.6584L171.007 32.5291L171.544 36.1912L177.481 35.3205ZM173.976 29.0938H167.164V35.0938H173.976V29.0938ZM164.196 31.6584L163.659 35.3205L169.595 36.1912L170.132 32.5291L164.196 31.6584ZM163.642 35.4574C163.674 35.1344 163.813 34.4366 164.432 33.8176C165.097 33.1528 165.888 33 166.383 33V39C167.024 39 167.929 38.8065 168.675 38.0603C169.375 37.3599 169.563 36.5401 169.612 36.0544L163.642 35.4574ZM166.383 33H160.816V39H166.383V33ZM160.816 33C161.413 33 162.336 33.2197 163.013 34.0649C163.586 34.7822 163.621 35.5167 163.621 35.7559H157.621C157.621 36.1578 157.688 37.0144 158.327 37.813C159.069 38.7396 160.089 39 160.816 39V33ZM167.449 12.235L165.203 26.2731L171.127 27.221L173.373 13.183L167.449 12.235ZM168.165 29.7471H172.975V23.7471H168.165V29.7471ZM175.943 26.3134L173.892 12.2753L167.955 13.1426L170.006 27.1807L175.943 26.3134ZM173.887 12.2411L173.594 10.3856L167.668 11.3214L167.961 13.1769L173.887 12.2411ZM167.652 10.5007L167.432 12.3562L173.39 13.0618L173.61 11.2063L167.652 10.5007ZM183.644 35.7559L180.644 35.7473V35.7559H183.644ZM183.741 1.40527L186.741 1.4138V1.40527H183.741ZM200.807 4.01758L198.629 6.08134L198.638 6.09105L198.648 6.10069L200.807 4.01758ZM202.101 17.7383L204.732 19.1783L204.74 19.1636L204.748 19.1488L202.101 17.7383ZM198.438 21.7422L196.839 19.2044L198.438 21.7422ZM189.747 23.1582V20.1582H186.747V23.1582H189.747ZM193.556 7.14258V4.14258H193.536L193.517 4.14282L193.556 7.14258ZM189.747 7.19141L189.709 4.19165L186.747 4.22962V7.19141H189.747ZM189.747 17.1035H186.747V20.1035H189.747V17.1035ZM196.314 15.5898L198.687 17.4264L198.694 17.4172L198.701 17.408L196.314 15.5898ZM196.437 8.41211L194.125 10.3239L194.134 10.3349L194.143 10.3459L196.437 8.41211ZM189.503 33H183.888V39H189.503V33ZM183.888 33C184.269 33 185.106 33.0973 185.826 33.8176C186.546 34.538 186.644 35.3748 186.644 35.7559H180.644C180.644 36.2997 180.782 37.2586 181.583 38.0603C182.385 38.862 183.344 39 183.888 39V33ZM186.644 35.7644L186.741 1.4138L180.741 1.39674L180.644 35.7473L186.644 35.7644ZM186.741 1.40527C186.741 1.8026 186.64 2.65162 185.911 3.38011C185.183 4.1086 184.334 4.20996 183.937 4.20996V-1.79004C183.409 -1.79004 182.462 -1.65612 181.669 -0.862534C180.875 -0.0689392 180.741 0.877731 180.741 1.40527H186.741ZM183.937 4.20996H193.556V-1.79004H183.937V4.20996ZM193.556 4.20996C195.958 4.20996 197.527 4.91818 198.629 6.08134L202.984 1.95382C200.538 -0.626518 197.273 -1.79004 193.556 -1.79004V4.20996ZM198.648 6.10069C199.774 7.26836 200.492 8.98192 200.492 11.6104H206.492C206.492 7.82603 205.42 4.47773 202.965 1.93447L198.648 6.10069ZM200.492 11.6104C200.492 13.5543 200.11 15.0951 199.453 16.3278L204.748 19.1488C205.947 16.8984 206.492 14.3539 206.492 11.6104H200.492ZM199.469 16.2982C198.742 17.6265 197.858 18.5619 196.839 19.2044L200.038 24.28C202.014 23.0345 203.571 21.3006 204.732 19.1783L199.469 16.2982ZM196.839 19.2044C195.817 19.8487 194.743 20.1582 193.556 20.1582V26.1582C195.884 26.1582 198.066 25.5237 200.038 24.28L196.839 19.2044ZM193.556 20.1582H189.747V26.1582H193.556V20.1582ZM186.747 23.1582V35.7559H192.747V23.1582H186.747ZM186.747 35.7559C186.747 35.3748 186.844 34.538 187.565 33.8176C188.285 33.0973 189.122 33 189.503 33V39C190.047 39 191.006 38.862 191.807 38.0603C192.609 37.2586 192.747 36.2997 192.747 35.7559H186.747ZM193.517 4.14282L189.709 4.19165L189.786 10.1912L193.594 10.1423L193.517 4.14282ZM186.747 7.19141V17.1035H192.747V7.19141H186.747ZM189.747 20.1035H193.556V14.1035H189.747V20.1035ZM193.556 20.1035C195.736 20.1035 197.468 19.0004 198.687 17.4264L193.942 13.7533C193.75 14.0013 193.625 14.0787 193.596 14.095C193.581 14.1031 193.577 14.1031 193.582 14.102C193.585 14.101 193.579 14.1035 193.556 14.1035V20.1035ZM198.701 17.408C199.974 15.7362 200.486 13.72 200.486 11.6104H194.486C194.486 12.7559 194.217 13.3927 193.928 13.7717L198.701 17.408ZM200.486 11.6104C200.486 9.74777 199.973 7.9523 198.73 6.47832L194.143 10.3459C194.3 10.5321 194.486 10.8688 194.486 11.6104H200.486ZM198.748 6.50031C197.411 4.88233 195.558 4.14258 193.556 4.14258V10.1426C193.817 10.1426 193.94 10.1868 193.982 10.2052C194.015 10.2197 194.058 10.2433 194.125 10.3239L198.748 6.50031ZM206.886 35.7559L203.886 35.7516V35.7559H206.886ZM206.935 1.40527L209.935 1.40954V1.40527H206.935ZM212.94 7.24023V4.24023H209.94V7.24023H212.94ZM212.94 15.0527H209.94V18.0527H212.94V15.0527ZM223.39 15.248H220.39V15.261L220.39 15.2739L223.39 15.248ZM223.438 20.9121H226.438V20.8992L226.438 20.8862L223.438 20.9121ZM212.94 21.1074V18.1074H209.94V21.1074H212.94ZM212.94 29.8477H209.94V32.8477H212.94V29.8477ZM223.243 33H207.081V39H223.243V33ZM207.081 33C207.678 33 208.601 33.2197 209.277 34.0649C209.851 34.7822 209.886 35.5167 209.886 35.7559H203.886C203.886 36.1578 203.953 37.0144 204.592 37.813C205.333 38.7396 206.354 39 207.081 39V33ZM209.886 35.7601L209.935 1.40954L203.935 1.40101L203.886 35.7516L209.886 35.7601ZM209.935 1.40527C209.935 1.8026 209.833 2.65162 209.105 3.38011C208.376 4.1086 207.527 4.20996 207.13 4.20996V-1.79004C206.602 -1.79004 205.656 -1.65612 204.862 -0.862534C204.068 -0.0689392 203.935 0.877731 203.935 1.40527H209.935ZM207.13 4.20996H223.194V-1.79004H207.13V4.20996ZM223.194 4.20996C222.597 4.20996 221.674 3.99023 220.998 3.14508C220.424 2.42776 220.39 1.69324 220.39 1.4541H226.39C226.39 1.05219 226.322 0.19561 225.683 -0.603088C224.942 -1.52962 223.922 -1.79004 223.194 -1.79004V4.20996ZM220.39 1.4541V7.04492H226.39V1.4541H220.39ZM220.39 7.04492C220.39 6.64759 220.491 5.79858 221.219 5.07008C221.948 4.3416 222.797 4.24023 223.194 4.24023V10.2402C223.722 10.2402 224.669 10.1063 225.462 9.31273C226.256 8.51913 226.39 7.57246 226.39 7.04492H220.39ZM223.194 4.24023H212.94V10.2402H223.194V4.24023ZM209.94 7.24023V15.0527H215.94V7.24023H209.94ZM212.94 18.0527H223.194V12.0527H212.94V18.0527ZM223.194 18.0527C222.797 18.0527 221.948 17.9514 221.219 17.2229C220.491 16.4944 220.39 15.6454 220.39 15.248H226.39C226.39 14.7205 226.256 13.7738 225.462 12.9802C224.669 12.1867 223.722 12.0527 223.194 12.0527V18.0527ZM220.39 15.2739L220.439 20.938L226.438 20.8862L226.39 15.2222L220.39 15.2739ZM220.438 20.9121C220.438 20.5148 220.54 19.6658 221.268 18.9373C221.997 18.2088 222.846 18.1074 223.243 18.1074V24.1074C223.771 24.1074 224.717 23.9735 225.511 23.1799C226.305 22.3863 226.438 21.4397 226.438 20.9121H220.438ZM223.243 18.1074H212.94V24.1074H223.243V18.1074ZM209.94 21.1074V29.8477H215.94V21.1074H209.94ZM212.94 32.8477H223.243V26.8477H212.94V32.8477ZM223.243 32.8477C222.646 32.8477 221.723 32.6279 221.047 31.7828C220.473 31.0655 220.438 30.3309 220.438 30.0918H226.438C226.438 29.6899 226.371 28.8333 225.732 28.0346C224.991 27.1081 223.97 26.8477 223.243 26.8477V32.8477ZM220.438 30.0918V35.8047H226.438V30.0918H220.438ZM220.438 35.8047C220.438 35.4074 220.54 34.5583 221.268 33.8298C221.997 33.1014 222.846 33 223.243 33V39C223.771 39 224.717 38.8661 225.511 38.0725C226.305 37.2789 226.438 36.3322 226.438 35.8047H220.438Z" fill="black" mask="url(#path-1-outside-1_577_4419)"/>
</svg>
