<svg width="1200" height="194" viewBox="0 0 1200 194" fill="none" xmlns="http://www.w3.org/2000/svg">
<g clip-path="url(#clip0_482_3)">
<path d="M14.6285 148.104C9.75292 145.666 6.09624 142.009 3.65845 137.134C1.22067 132.258 0.00177383 126.164 0.00177383 118.85V74.3609C0.00177383 67.0476 1.22067 60.9531 3.65845 56.0775C6.09624 51.2019 9.75292 47.5453 14.6285 45.1075C19.5041 42.6697 25.5985 41.4508 32.9119 41.4508H127.376C134.689 41.4508 140.784 42.6697 145.659 45.1075C150.535 47.5453 154.192 51.2019 156.629 56.0775C159.067 60.9531 160.286 67.0476 160.286 74.3609V85.3309H132.252V81.6743C132.252 78.0176 132.252 74.9704 131.033 73.142C129.814 71.3137 128.595 69.4853 126.157 68.2664C124.329 67.0476 121.282 67.0476 117.625 67.0476H43.2725C39.6158 67.0476 36.5686 67.0476 34.7402 68.2664C32.9119 69.4853 31.0835 70.7042 29.8646 73.142C28.6458 74.9704 28.0363 78.0176 28.0363 81.6743V111.537C28.0363 115.194 28.0363 118.241 29.8646 120.069C31.0835 121.898 32.3024 123.726 34.7402 124.945C37.178 126.164 39.6158 126.164 43.2725 126.164H116.406C120.063 126.164 123.11 126.164 124.938 124.945C126.767 123.726 128.595 122.507 129.814 120.069C131.033 118.241 131.033 115.194 131.033 111.537V108.49H159.067V118.85C159.067 126.164 157.848 132.258 155.411 137.134C152.973 142.009 149.316 145.666 144.441 148.104C139.565 150.542 133.471 151.761 126.157 151.761H32.9119C25.5985 151.761 19.5041 150.542 14.6285 148.104Z" fill="#D0F009"/>
<path d="M176.743 42.0535H296.194C303.508 42.0535 308.993 43.2724 313.868 45.7101C318.744 48.1479 321.791 51.8046 324.229 56.0707C326.667 60.3369 327.885 66.4313 327.885 73.7447V82.8864C327.885 87.7619 327.276 92.6375 326.057 96.2942C324.838 99.9509 323.01 102.998 320.572 105.436C318.134 107.874 315.087 109.702 311.43 110.921L328.495 151.144H298.632L283.396 113.968H205.996V151.144H177.352V42.0535H176.743ZM294.366 88.3714C294.366 88.3714 297.413 86.5431 298.023 85.3242C298.632 84.1053 299.241 81.6675 299.241 79.2297V77.4014C299.241 77.4014 299.241 72.5258 298.023 71.3069C297.413 70.088 295.585 68.8691 294.366 68.2597C292.538 68.2597 290.1 67.6502 287.662 67.6502H204.777V89.5903H287.662C287.662 89.5903 292.538 89.5903 294.366 88.9808V88.3714Z" fill="#D0F009"/>
<path d="M357.137 148.104C352.262 145.666 348.605 142.009 346.167 137.134C343.729 132.258 342.51 126.164 342.51 118.85V74.3609C342.51 67.0476 343.729 60.9531 346.167 56.0775C348.605 51.2019 352.262 47.5453 357.137 45.1075C362.013 42.6697 368.107 41.4508 375.42 41.4508H470.494C477.807 41.4508 483.902 42.6697 488.778 45.1075C493.653 47.5453 497.31 51.2019 499.748 56.0775C502.185 60.9531 503.404 67.0476 503.404 74.3609V118.85C503.404 126.164 502.185 132.258 499.748 137.134C497.31 142.009 493.653 145.666 488.778 148.104C483.902 150.542 477.807 151.761 470.494 151.761H375.42C368.107 151.761 362.013 150.542 357.137 148.104ZM468.666 124.945C468.666 124.945 472.322 122.507 473.541 120.069C474.76 118.241 475.37 115.194 475.37 111.537V81.6743C475.37 78.0176 475.37 74.9704 473.541 73.142C472.322 71.3137 471.104 69.4853 468.666 68.2664C466.228 67.0476 463.79 67.0476 460.134 67.0476H385.781C382.124 67.0476 379.077 67.0476 377.249 68.2664C375.42 69.4853 373.592 70.7042 372.373 73.142C371.154 74.9704 370.545 78.0176 370.545 81.6743V111.537C370.545 115.194 370.545 118.241 372.373 120.069C373.592 121.898 374.811 123.726 377.249 124.945C379.687 126.164 382.124 126.164 385.781 126.164H460.134C463.79 126.164 466.837 126.164 468.666 124.945Z" fill="#D0F009"/>
<path d="M711.839 42.0535H831.29C837.994 42.0535 844.088 43.2724 848.964 45.7101C853.84 48.1479 856.887 51.8046 859.325 56.0707C861.762 60.9463 862.981 66.4313 862.981 73.7447V82.8864C862.981 90.1997 861.762 95.6847 859.325 100.56C856.887 105.436 853.23 108.483 848.964 110.921C844.088 113.359 838.603 114.578 831.29 114.578H740.482V151.754H711.839V42.0535ZM829.462 88.3714C829.462 88.3714 832.509 86.5431 833.118 85.3242C833.728 84.1053 834.337 81.6675 834.337 79.2297V77.4014C834.337 77.4014 834.337 72.5258 833.118 71.3069C832.509 70.088 831.29 68.8691 829.462 68.2597C827.633 67.6502 825.196 67.6502 822.758 67.6502H740.482V89.5903H822.758C822.758 89.5903 828.243 89.5903 830.071 88.3714H829.462Z" fill="#D0F009"/>
<path d="M888.573 42.0535H1005.59L1028.14 151.754H1000.1L979.38 48.7574L994.617 67.0408H899.543L915.998 48.7574L895.277 151.754H866.633L889.182 42.0535H888.573ZM892.23 94.4659H1001.93L1006.81 120.063H887.354L892.23 94.4659Z" fill="#D0F009"/>
<path d="M1041.54 42.0535H1167.7C1175.01 42.0535 1181.11 43.2724 1185.98 45.7101C1190.86 48.1479 1194.51 51.8046 1196.95 56.6802C1199.39 61.5558 1200.61 67.6502 1200.61 74.9636V119.453C1200.61 126.767 1199.39 132.861 1196.95 137.737C1194.51 142.612 1190.86 146.269 1185.98 148.707C1181.11 151.144 1175.01 152.363 1167.7 152.363H1041.54V42.0535ZM1165.26 124.938C1165.26 124.938 1168.92 122.5 1170.14 120.063C1171.36 118.234 1171.97 115.187 1171.97 111.53V81.6675C1171.97 78.0108 1171.97 74.9636 1170.14 73.1352C1168.92 71.3069 1167.7 69.4786 1165.26 68.2597C1163.43 67.0408 1160.39 67.0408 1156.73 67.0408H1069.58V126.157H1156.73C1160.39 126.157 1163.43 126.157 1165.26 124.938Z" fill="#D0F009"/>
<path d="M694.159 73.7483V78.6238C694.159 85.3278 692.94 90.8128 690.502 95.6883C688.064 100.564 684.408 103.611 679.532 106.049C677.094 107.268 674.047 108.487 670.39 109.096C667.953 109.706 665.515 109.706 662.468 109.706H552.158C552.158 109.706 547.892 109.706 546.673 110.315C545.454 110.315 544.235 111.534 543.626 112.753C543.016 113.972 542.407 115.8 542.407 118.238C542.407 121.895 543.626 123.723 544.844 124.942C546.673 126.77 549.111 127.38 552.158 127.38H641.746C648.45 127.38 653.935 127.989 658.811 130.427C663.077 132.865 666.734 136.521 668.562 140.787C671 145.053 672.219 151.148 672.219 157.852V162.727C672.219 169.431 671 174.916 668.562 179.792C666.124 184.668 662.468 188.324 657.592 190.153C653.326 192.59 647.232 193.809 640.528 193.809H546.063C539.359 193.809 533.874 192.59 529.608 190.762C524.733 188.324 521.686 184.668 519.248 180.401C516.81 175.526 515.591 170.041 515.591 163.337V159.68H543.016C543.016 159.68 543.626 163.946 544.235 165.165C544.845 166.384 546.063 166.994 547.282 167.603C548.501 167.603 550.329 168.822 552.767 168.822H635.043C638.699 168.822 641.137 168.212 642.965 166.994C644.184 165.775 645.403 163.337 645.403 160.29V159.071C645.403 159.071 644.794 155.414 644.184 154.195C643.575 152.976 642.356 152.367 640.528 151.757C639.309 151.148 637.48 151.148 635.043 151.148H546.063C539.359 151.148 533.874 149.929 528.999 147.491C524.733 145.054 521.076 142.006 519.248 137.131C516.81 132.865 515.591 127.38 515.591 120.676V115.8C515.591 109.096 516.81 103.002 519.248 98.7356C521.686 93.86 525.342 90.2033 529.608 87.7655C532.046 86.5466 535.093 85.9372 538.141 85.3278C541.188 84.7183 544.235 84.7183 547.282 84.7183H656.983C660.639 84.7183 663.077 84.1089 664.905 82.89C666.124 81.6711 667.343 79.2333 667.343 76.1861V74.9672C667.343 74.9672 666.734 71.3105 666.124 70.0916C665.515 68.8727 664.296 68.2633 662.468 67.6538C661.249 67.0444 659.42 66.4349 656.983 66.4349H568.003C561.3 66.4349 555.815 65.8255 550.939 63.3877C546.673 60.9499 543.016 57.9027 541.188 53.0271C538.75 48.761 537.531 42.6665 537.531 36.572V31.087C537.531 24.3831 538.75 18.8981 541.188 14.632C543.626 9.75639 547.282 6.09971 551.548 3.66193C556.424 1.22414 561.909 0.00524902 568.613 0.00524902H663.077C669.781 0.00524902 675.266 1.22414 679.532 3.66193C683.798 6.09971 687.455 9.14695 689.893 14.0225C691.721 18.2886 692.94 23.7737 692.94 30.4776V34.7437H665.515C665.515 31.087 664.905 28.6492 663.687 27.4303C661.858 26.2114 659.42 25.602 655.764 25.602H574.098C574.098 25.602 569.832 25.602 568.613 26.2114C566.785 26.2114 566.175 27.4303 565.566 28.6492C564.956 29.8681 564.347 31.6965 564.347 33.5248V34.7437C564.347 37.7909 564.956 39.6193 566.785 40.8382C568.003 42.0571 571.051 42.6665 574.098 42.6665H663.687C670.39 42.6665 675.875 43.8854 680.142 46.3232C685.017 48.761 688.064 51.8082 690.502 56.6838C692.94 60.9499 694.159 66.4349 694.159 73.7483Z" fill="#D0F009"/>
</g>
<defs>
<clipPath id="clip0_482_3">
<rect width="1200" height="193.804" fill="white"/>
</clipPath>
</defs>
</svg>
