<svg width="1080" height="1080" viewBox="0 0 1080 1080" fill="none" xmlns="http://www.w3.org/2000/svg">
<g clip-path="url(#clip0_471_1755)">
<circle cx="540" cy="540" r="540" fill="#121212"/>
<path d="M858.184 459.34V476.321C858.184 499.67 853.939 518.774 845.448 535.755C836.958 552.736 824.222 563.349 807.24 571.84C798.75 576.085 788.137 580.33 775.401 582.453C766.91 584.575 758.42 584.575 747.807 584.575H363.609C363.609 584.575 348.75 584.575 344.505 586.698C340.259 586.698 336.014 590.943 333.892 595.189C331.769 599.434 329.646 605.802 329.646 614.292C329.646 627.028 333.891 633.396 338.137 637.641C344.505 644.009 352.995 646.132 363.609 646.132H675.637C698.986 646.132 718.09 648.255 735.071 656.745C749.929 665.236 762.665 677.972 769.033 692.83C777.524 707.689 781.769 728.915 781.769 752.264V769.245C781.769 792.594 777.524 811.698 769.033 828.679C760.542 845.66 747.807 858.396 730.825 864.764C715.967 873.255 694.741 877.5 671.392 877.5H342.382C319.033 877.5 299.929 873.255 285.071 866.887C268.09 858.396 257.477 845.66 248.986 830.802C240.495 813.821 236.25 794.717 236.25 771.368V758.632H331.769C331.769 758.632 333.892 773.491 336.014 777.736C338.137 781.981 342.382 784.104 346.627 786.226C350.873 786.226 357.24 790.472 365.731 790.472H652.288C665.024 790.472 673.514 788.349 679.882 784.104C684.127 779.858 688.373 771.368 688.373 760.755V756.509C688.373 756.509 686.25 743.774 684.127 739.528C682.005 735.283 677.759 733.16 671.392 731.038C667.146 728.915 660.778 728.915 652.288 728.915H342.382C319.033 728.915 299.929 724.67 282.948 716.179C268.09 707.689 255.354 697.075 248.986 680.094C240.495 665.236 236.25 646.132 236.25 622.783V605.802C236.25 582.453 240.495 561.226 248.986 546.368C257.477 529.387 270.212 516.651 285.071 508.16C293.561 503.915 304.174 501.792 314.788 499.67C325.401 497.547 336.014 497.547 346.627 497.547H728.703C741.439 497.547 749.929 495.425 756.297 491.179C760.542 486.934 764.788 478.443 764.788 467.83V463.585C764.788 463.585 762.665 450.849 760.542 446.604C758.42 442.358 754.174 440.236 747.807 438.113C743.561 435.991 737.193 433.868 728.703 433.868H418.797C395.448 433.868 376.344 431.745 359.363 423.255C344.505 414.764 331.769 404.151 325.401 387.17C316.91 372.311 312.665 351.085 312.665 329.858V310.755C312.665 287.406 316.91 268.302 325.401 253.443C333.892 236.462 346.627 223.726 361.486 215.236C378.467 206.745 397.571 202.5 420.92 202.5H749.929C773.278 202.5 792.382 206.745 807.24 215.236C822.099 223.726 834.835 234.34 843.325 251.321C849.693 266.179 853.939 285.283 853.939 308.632V323.491H758.42C758.42 310.755 756.297 302.264 752.052 298.019C745.684 293.774 737.193 291.651 724.458 291.651H440.024C440.024 291.651 425.165 291.651 420.92 293.774C414.552 293.774 412.429 298.019 410.307 302.264C408.184 306.509 406.061 312.877 406.061 319.245V323.491C406.061 334.104 408.184 340.472 414.552 344.717C418.797 348.962 429.41 351.085 440.024 351.085H752.052C775.401 351.085 794.505 355.33 809.363 363.821C826.344 372.311 836.958 382.925 845.448 399.906C853.939 414.764 858.184 433.868 858.184 459.34Z" fill="#D0F009"/>
</g>
<defs>
<clipPath id="clip0_471_1755">
<rect width="1080" height="1080" fill="white"/>
</clipPath>
</defs>
</svg>
