<svg width="129" height="10" viewBox="0 0 129 10" fill="none" xmlns="http://www.w3.org/2000/svg">
<path d="M5.16 0.9C5.16 0.707999 5.268 0.599999 5.46 0.599999H6.78C6.972 0.599999 7.08 0.707999 7.08 0.9V8.7C7.08 8.892 6.972 9 6.78 9H5.88C5.724 9 5.592 8.94 5.508 8.808L2.64 4.32V8.7C2.64 8.892 2.532 9 2.34 9H1.02C0.828 9 0.72 8.892 0.72 8.7V0.9C0.72 0.707999 0.828 0.599999 1.02 0.599999H1.92C2.076 0.599999 2.208 0.659999 2.292 0.792L5.16 5.28V0.9ZM13.2647 7.152C13.4567 7.152 13.5647 7.26 13.5647 7.452V8.7C13.5647 8.892 13.4567 9 13.2647 9H9.12469H8.82469C8.63269 9 8.52469 8.892 8.52469 8.7V0.9C8.52469 0.707999 8.63269 0.599999 8.82469 0.599999H10.4447H13.2047C13.3967 0.599999 13.5047 0.707999 13.5047 0.9V2.148C13.5047 2.34 13.3967 2.448 13.2047 2.448H10.4447V3.852H12.9047C13.0967 3.852 13.2047 3.96 13.2047 4.152V5.352C13.2047 5.544 13.0967 5.652 12.9047 5.652H10.4447V7.152H13.2647ZM24.3739 0.599999C24.5899 0.599999 24.6859 0.719999 24.6259 0.935999L22.4779 8.748C22.4299 8.928 22.3099 9 22.1419 9H20.6059C20.4379 9 20.3179 8.928 20.2699 8.748L19.3219 5.304L18.3739 8.748C18.3259 8.928 18.2059 9 18.0379 9H16.5019C16.3339 9 16.2139 8.928 16.1659 8.748L14.0179 0.935999C13.9579 0.719999 14.0539 0.599999 14.2699 0.599999H15.6739C15.8539 0.599999 15.9619 0.696 15.9979 0.864L17.3899 6.48L18.4939 2.328L18.1219 0.935999C18.0619 0.719999 18.1579 0.599999 18.3739 0.599999H19.5379C19.7179 0.599999 19.8259 0.696 19.8619 0.864L21.2539 6.48L22.6459 0.864C22.6819 0.696 22.7899 0.599999 22.9699 0.599999H24.3739ZM34.9866 8.64C35.1186 8.844 35.0346 9 34.7946 9H33.2826C33.1266 9 33.0066 8.94 32.9226 8.808L30.3666 5.124V8.7C30.3666 8.892 30.2586 9 30.0666 9H28.7466C28.5546 9 28.4466 8.892 28.4466 8.7V0.9C28.4466 0.707999 28.5546 0.599999 28.7466 0.599999H30.0666C30.2586 0.599999 30.3666 0.707999 30.3666 0.9V4.26L32.8026 0.792C32.8986 0.659999 33.0066 0.599999 33.1626 0.599999H34.6746C34.9146 0.599999 35.0106 0.756 34.8666 0.96L32.2746 4.692L34.9866 8.64ZM35.9583 0.9C35.9583 0.707999 36.0663 0.599999 36.2583 0.599999H37.5783C37.7703 0.599999 37.8783 0.707999 37.8783 0.9V8.7C37.8783 8.892 37.7703 9 37.5783 9H36.2583C36.0663 9 35.9583 8.892 35.9583 8.7V0.9ZM44.1816 0.599999C44.3736 0.599999 44.4816 0.707999 44.4816 0.9V2.148C44.4816 2.34 44.3736 2.448 44.1816 2.448H42.5616V8.7C42.5616 8.892 42.4536 9 42.2616 9H40.9416C40.7496 9 40.6416 8.892 40.6416 8.7V2.448H39.0216C38.8296 2.448 38.7216 2.34 38.7216 2.148V0.9C38.7216 0.707999 38.8296 0.599999 39.0216 0.599999H42.5616H44.1816ZM53.0616 7.152C53.2536 7.152 53.3616 7.26 53.3616 7.452V8.7C53.3616 8.892 53.2536 9 53.0616 9H48.9216H48.6216C48.4296 9 48.3216 8.892 48.3216 8.7V0.9C48.3216 0.707999 48.4296 0.599999 48.6216 0.599999H50.2416H53.0016C53.1936 0.599999 53.3016 0.707999 53.3016 0.9V2.148C53.3016 2.34 53.1936 2.448 53.0016 2.448H50.2416V3.852H52.7016C52.8936 3.852 53.0016 3.96 53.0016 4.152V5.352C53.0016 5.544 52.8936 5.652 52.7016 5.652H50.2416V7.152H53.0616ZM56.5988 9C56.4308 9 56.3108 8.916 56.2628 8.748L53.8268 0.935999C53.7668 0.732 53.8628 0.599999 54.0788 0.599999H55.5548C55.7228 0.599999 55.8428 0.672 55.8908 0.852L57.5588 6.78L59.2268 0.852C59.2748 0.672 59.3948 0.599999 59.5628 0.599999H61.0388C61.2548 0.599999 61.3508 0.732 61.2908 0.935999L58.8548 8.748C58.8068 8.916 58.6868 9 58.5188 9H56.5988ZM66.8545 7.152C67.0465 7.152 67.1545 7.26 67.1545 7.452V8.7C67.1545 8.892 67.0465 9 66.8545 9H62.7145H62.4145C62.2225 9 62.1145 8.892 62.1145 8.7V0.9C62.1145 0.707999 62.2225 0.599999 62.4145 0.599999H64.0345H66.7945C66.9865 0.599999 67.0945 0.707999 67.0945 0.9V2.148C67.0945 2.34 66.9865 2.448 66.7945 2.448H64.0345V3.852H66.4945C66.6865 3.852 66.7945 3.96 66.7945 4.152V5.352C66.7945 5.544 66.6865 5.652 66.4945 5.652H64.0345V7.152H66.8545ZM75.0237 8.628V8.64C75.1797 8.832 75.0957 9.012 74.8437 9.012H73.3077C73.1517 9.012 73.0317 8.964 72.9357 8.832L70.8837 6.252H70.1517V8.712C70.1517 8.904 70.0437 9.012 69.8517 9.012H68.5317C68.3397 9.012 68.2317 8.904 68.2317 8.712V0.912C68.2317 0.719999 68.3397 0.611999 68.5317 0.611999H70.1517H71.4717C73.0677 0.611999 74.3517 1.896 74.3517 3.492C74.3517 4.488 73.7517 5.412 72.8637 5.892L75.0237 8.628ZM70.1517 2.412V4.572H71.4717C71.9997 4.572 72.4317 4.104 72.4317 3.492C72.4317 2.88 71.9997 2.412 71.4717 2.412H70.1517ZM81.2675 0.599999C81.4955 0.599999 81.5915 0.744 81.4715 0.96L78.9755 5.328V8.7C78.9755 8.892 78.8675 9 78.6755 9H77.3555C77.1635 9 77.0555 8.892 77.0555 8.7V5.328L74.5595 0.96C74.4395 0.744 74.5355 0.599999 74.7635 0.599999H76.2995C76.4675 0.599999 76.5755 0.672 76.6475 0.816L78.0155 3.444L79.3835 0.816C79.4555 0.672 79.5635 0.599999 79.7315 0.599999H81.2675ZM88.0277 9.168C86.4557 9.168 85.0757 8.412 84.9317 6.672C84.9197 6.468 85.0397 6.36 85.2317 6.36H86.5517C86.7317 6.36 86.8277 6.456 86.8637 6.648C86.9597 7.08 87.3197 7.296 88.0277 7.296C88.8077 7.296 89.0597 6.996 89.0597 6.648C89.0597 6.156 88.4597 5.94 87.7277 5.688C86.5397 5.28 85.0397 4.788 85.0397 2.952C85.0397 1.272 86.4077 0.431999 87.8357 0.431999C89.2397 0.431999 90.5837 1.188 90.7277 2.928C90.7397 3.132 90.6197 3.24 90.4277 3.24H89.1077C88.9277 3.24 88.8317 3.144 88.7957 2.952C88.6997 2.508 88.3877 2.304 87.8357 2.304C87.2357 2.304 86.9597 2.604 86.9597 2.952C86.9597 3.456 87.4517 3.696 88.1477 3.948C89.3477 4.368 90.9797 4.8 90.9797 6.648C90.9797 8.328 89.6357 9.168 88.0277 9.168ZM94.9388 9.168C93.2108 9.168 91.8188 8.208 91.8188 6.408V0.9C91.8188 0.707999 91.9268 0.599999 92.1188 0.599999H93.4388C93.6308 0.599999 93.7388 0.707999 93.7388 0.9V6.24C93.7388 6.876 94.0388 7.296 94.9388 7.296C95.8388 7.296 96.1388 6.876 96.1388 6.24V0.9C96.1388 0.707999 96.2468 0.599999 96.4388 0.599999H97.7588C97.9508 0.599999 98.0588 0.707999 98.0588 0.9V6.408C98.0588 8.208 96.6668 9.168 94.9388 9.168ZM103.82 0.9C103.82 0.707999 103.928 0.599999 104.12 0.599999H105.44C105.632 0.599999 105.74 0.707999 105.74 0.9V8.7C105.74 8.892 105.632 9 105.44 9H104.54C104.384 9 104.252 8.94 104.168 8.808L101.3 4.32V8.7C101.3 8.892 101.192 9 101 9H99.6802C99.4882 9 99.3802 8.892 99.3802 8.7V0.9C99.3802 0.707999 99.4882 0.599999 99.6802 0.599999H100.58C100.736 0.599999 100.868 0.659999 100.952 0.792L103.82 5.28V0.9ZM110.785 0.599999C113.101 0.599999 114.865 2.424 114.865 4.8C114.865 7.176 113.101 9 110.785 9H107.785H107.485C107.293 9 107.185 8.892 107.185 8.7V0.9C107.185 0.707999 107.293 0.599999 107.485 0.599999H109.105H110.785ZM110.785 7.152C112.105 7.152 113.017 6.24 113.017 4.8C113.017 3.36 112.105 2.448 110.785 2.448H109.105V7.152H110.785ZM122.621 8.664C122.693 8.88 122.585 9 122.369 9H120.893C120.725 9 120.605 8.928 120.557 8.748L120.233 7.68H117.293L116.981 8.748C116.933 8.928 116.813 9 116.645 9H115.169C114.953 9 114.845 8.88 114.917 8.664L117.461 0.852C117.509 0.684 117.641 0.599999 117.809 0.599999H119.729C119.897 0.599999 120.029 0.684 120.077 0.852L122.621 8.664ZM117.821 5.88H119.705L118.769 2.7L117.821 5.88ZM128.564 0.599999C128.792 0.599999 128.888 0.744 128.768 0.96L126.272 5.328V8.7C126.272 8.892 126.164 9 125.972 9H124.652C124.46 9 124.352 8.892 124.352 8.7V5.328L121.856 0.96C121.736 0.744 121.832 0.599999 122.06 0.599999H123.596C123.764 0.599999 123.872 0.672 123.944 0.816L125.312 3.444L126.68 0.816C126.752 0.672 126.86 0.599999 127.028 0.599999H128.564Z" fill="#D9F009"/>
</svg>
